<?xml version="1.0" encoding="utf-8"?>
<!-- Generator: Adobe Illustrator 25.0.1, SVG Export Plug-In . SVG Version: 6.00 Build 0)  -->
<svg version="1.1" id="Layer_1" xmlns="http://www.w3.org/2000/svg" xmlns:xlink="http://www.w3.org/1999/xlink" x="0px" y="0px"
	 viewBox="0 0 774 310" style="enable-background:new 0 0 774 310;" xml:space="preserve">
<style type="text/css">
	.st0{fill:url(#SVGID_1_);stroke:#4B5877;stroke-width:3;stroke-linecap:round;stroke-linejoin:round;stroke-miterlimit:10;}
	.st1{fill:url(#SVGID_2_);stroke:#4B5877;stroke-width:3;stroke-linecap:round;stroke-linejoin:round;stroke-miterlimit:10;}
	.st2{fill:url(#SVGID_3_);stroke:#4B5877;stroke-width:3;stroke-linecap:round;stroke-linejoin:round;stroke-miterlimit:10;}
	.st3{fill:none;stroke:#4B5877;stroke-width:3;stroke-linecap:round;stroke-linejoin:round;stroke-miterlimit:10;}
	.st4{fill:#F78F5C;stroke:#4B5877;stroke-width:3;stroke-linecap:round;stroke-linejoin:round;stroke-miterlimit:10;}
	.st5{opacity:0.2;fill:#4B5877;}
	.st6{fill:#669FE2;stroke:#4B5877;stroke-width:3;stroke-linecap:round;stroke-linejoin:round;stroke-miterlimit:10;}
	.st7{opacity:0.3;fill:#4B5877;}
	.st8{fill:url(#SVGID_4_);stroke:#4B5877;stroke-width:3;stroke-linecap:round;stroke-linejoin:round;stroke-miterlimit:10;}
	.st9{fill:#ADCCF6;stroke:#4B5877;stroke-width:3;stroke-linecap:round;stroke-linejoin:round;stroke-miterlimit:10;}
	.st10{opacity:0.2;fill:#FFFFFF;}
	.st11{fill:#F6D8B2;stroke:#4B5877;stroke-width:3;stroke-linecap:round;stroke-linejoin:round;stroke-miterlimit:10;}
	.st12{fill:url(#SVGID_5_);stroke:#4B5877;stroke-width:3;stroke-linecap:round;stroke-linejoin:round;stroke-miterlimit:10;}
	.st13{fill:#5CA06B;stroke:#4B5877;stroke-width:3;stroke-linecap:round;stroke-linejoin:round;stroke-miterlimit:10;}
	.st14{fill:url(#SVGID_6_);stroke:#4B5877;stroke-width:3;stroke-linecap:round;stroke-linejoin:round;stroke-miterlimit:10;}
	.st15{fill:url(#SVGID_7_);stroke:#4B5877;stroke-width:3;stroke-linecap:round;stroke-linejoin:round;stroke-miterlimit:10;}
	.st16{fill:url(#SVGID_8_);stroke:#4B5877;stroke-width:3;stroke-linecap:round;stroke-linejoin:round;stroke-miterlimit:10;}
	.st17{display:none;}
	
		.st18{display:inline;fill:#F6D8B2;stroke:#504E51;stroke-width:3;stroke-linecap:round;stroke-linejoin:round;stroke-miterlimit:10;}
	.st19{display:inline;fill:none;stroke:#504E51;stroke-width:3;stroke-linecap:round;stroke-linejoin:round;stroke-miterlimit:10;}
	.st20{display:inline;fill:#E7BD9B;}
	.st21{fill:#948D66;stroke:#4B5877;stroke-width:3;stroke-linecap:round;stroke-linejoin:round;stroke-miterlimit:10;}
	.st22{opacity:0.6;fill:#948D66;}
	.st23{fill:#E7BD9B;}
	.st24{opacity:0.3;fill:#6D6A5D;}
	.st25{fill:#FFFFFF;stroke:#4B5877;stroke-width:3;stroke-linecap:round;stroke-linejoin:round;stroke-miterlimit:10;}
	.st26{fill:url(#SVGID_9_);stroke:#4B5877;stroke-width:4;stroke-linecap:round;stroke-linejoin:round;stroke-miterlimit:10;}
	.st27{fill:url(#SVGID_10_);stroke:#4B5877;stroke-width:4;stroke-linecap:round;stroke-linejoin:round;stroke-miterlimit:10;}
	.st28{fill:url(#SVGID_11_);stroke:#4B5877;stroke-width:4;stroke-linecap:round;stroke-linejoin:round;stroke-miterlimit:10;}
	.st29{fill:none;stroke:#4B5877;stroke-width:4;stroke-linecap:round;stroke-linejoin:round;stroke-miterlimit:10;}
	.st30{fill:#F78F5C;stroke:#4B5877;stroke-width:4;stroke-linecap:round;stroke-linejoin:round;stroke-miterlimit:10;}
	.st31{fill:#669FE2;stroke:#4B5877;stroke-width:4;stroke-linecap:round;stroke-linejoin:round;stroke-miterlimit:10;}
	.st32{fill:url(#SVGID_12_);stroke:#4B5877;stroke-width:4;stroke-linecap:round;stroke-linejoin:round;stroke-miterlimit:10;}
	.st33{fill:#ADCCF6;stroke:#4B5877;stroke-width:4;stroke-linecap:round;stroke-linejoin:round;stroke-miterlimit:10;}
	.st34{fill:#F6D8B2;stroke:#4B5877;stroke-width:4;stroke-linecap:round;stroke-linejoin:round;stroke-miterlimit:10;}
	.st35{fill:url(#SVGID_13_);stroke:#4B5877;stroke-width:4;stroke-linecap:round;stroke-linejoin:round;stroke-miterlimit:10;}
	.st36{fill:url(#SVGID_14_);stroke:#4B5877;stroke-width:4;stroke-linecap:round;stroke-linejoin:round;stroke-miterlimit:10;}
	.st37{fill:url(#SVGID_15_);stroke:#4B5877;stroke-width:4;stroke-linecap:round;stroke-linejoin:round;stroke-miterlimit:10;}
	.st38{fill:#5CA06B;stroke:#4B5877;stroke-width:4;stroke-linecap:round;stroke-linejoin:round;stroke-miterlimit:10;}
	.st39{fill:url(#SVGID_16_);stroke:#4B5877;stroke-width:4;stroke-linecap:round;stroke-linejoin:round;stroke-miterlimit:10;}
	.st40{fill:url(#SVGID_17_);stroke:#4B5877;stroke-width:4;stroke-linecap:round;stroke-linejoin:round;stroke-miterlimit:10;}
	.st41{fill:url(#SVGID_18_);stroke:#4B5877;stroke-width:4;stroke-linecap:round;stroke-linejoin:round;stroke-miterlimit:10;}
	
		.st42{display:inline;fill:#F6D8B2;stroke:#504E51;stroke-width:4;stroke-linecap:round;stroke-linejoin:round;stroke-miterlimit:10;}
	.st43{display:inline;fill:none;stroke:#504E51;stroke-width:4;stroke-linecap:round;stroke-linejoin:round;stroke-miterlimit:10;}
	.st44{fill:#948D66;stroke:#4B5877;stroke-width:4;stroke-linecap:round;stroke-linejoin:round;stroke-miterlimit:10;}
	.st45{fill:#FFFFFF;stroke:#4B5877;stroke-width:4;stroke-linecap:round;stroke-linejoin:round;stroke-miterlimit:10;}
	.st46{fill:#FFFFFF;}
</style>
<g>
	<g>
		<g>
			<linearGradient id="SVGID_1_" gradientUnits="userSpaceOnUse" x1="143.7885" y1="-107.0032" x2="313.2012" y2="357.7575">
				<stop  offset="8.597883e-03" style="stop-color:#CAE062"/>
				<stop  offset="0.9978" style="stop-color:#5CA06B"/>
			</linearGradient>
			
				<path style="fill:url(#SVGID_1_);stroke:#4B5877;stroke-width:4;stroke-linecap:round;stroke-linejoin:round;stroke-miterlimit:10;" d="
				M177.17,184.12c0,0-15.53-27.41-6.16-46s21.77-20.36,24.43-28.04s1.03-33.33,9.63-42.81c8.6-9.48,18.07-2.92,22.86-6.8
				c4.78-3.88,21.04-32.87,38.8-21.42s-2.62,25.8-2.41,28.62c0.21,2.82,21.26,14.86,1.63,28.23S220.77,184.05,177.17,184.12z"/>
			<linearGradient id="SVGID_2_" gradientUnits="userSpaceOnUse" x1="59.0566" y1="-76.117" x2="228.4694" y2="388.6436">
				<stop  offset="8.597883e-03" style="stop-color:#CAE062"/>
				<stop  offset="0.9978" style="stop-color:#5CA06B"/>
			</linearGradient>
			
				<path style="fill:url(#SVGID_2_);stroke:#4B5877;stroke-width:4;stroke-linecap:round;stroke-linejoin:round;stroke-miterlimit:10;" d="
				M151.85,161.6c0,0,12.82-48.94,10.03-59.05c0,0-1.07-9.87-7.73-14.31c-6.66-4.44-10.36-4.69-11.6-7.65
				c-1.23-2.96,2.71-31.19-5.43-35.82s-14.8,3.01-17.76,2.27c-2.96-0.74-31.09-45.15-48.85-25.17s18.01,37.99,14.8,40.46
				s-19.35,15.4,2.95,26.82c21.91,11.22,25.64,10.31,23.94,13.61c-3.87,7.49-13.81,20.26,5.19,36.05S151.85,161.6,151.85,161.6z"/>
			<linearGradient id="SVGID_3_" gradientUnits="userSpaceOnUse" x1="-13.4436" y1="-49.6895" x2="155.9692" y2="415.0712">
				<stop  offset="8.597883e-03" style="stop-color:#CAE062"/>
				<stop  offset="0.9978" style="stop-color:#5CA06B"/>
			</linearGradient>
			
				<path style="fill:url(#SVGID_3_);stroke:#4B5877;stroke-width:4;stroke-linecap:round;stroke-linejoin:round;stroke-miterlimit:10;" d="
				M129.71,176.06c0.49-0.42-6.32-6.66-6.98-7.4c-6.69-7.46-17.11-11.02-27-9.96c-9.23,0.99-15.13,7.5-23.38,10.63
				c-3.3,1.25-24.45-1.93-29.1,11.59c-4.65,13.53,3.95,14.37,1.78,20.65c-2.17,6.28-12.87,17.9-13.46,29.98s4.3,25.85,13.48,26.66
				c13.48,1.19,18.97-23.6,20.53-28.03c1.09-3.09,2.03-6.7,5.79-5.29c7.08,2.66,14.36-4.35,18.03-12.1
				c5.4-11.39,1.4-22.13,5.99-24.04c3.3-1.37,10.33,2.19,18.42-1.09C117.9,186,129.71,176.06,129.71,176.06z"/>
			<path class="st29" d="M97.54,50.13c0,0,24.67,17.16,43.61,75.79s20.73,82.54,20.73,82.54"/>
			<path class="st29" d="M63.25,207.95c0,0,15.24-41.32,46.35-39.74c11.67,0.59,20.79,7.14,27.64,15.1
				c11.42,13.26,16.51,30.44,16.51,30.44"/>
			<path class="st29" d="M169.19,222.99c4.25-31.77,13.7-62.95,29.01-90.28c12.77-22.8,30.87-51.75,52.38-64.5
				c0.15-0.09,0.32-0.15,0.47-0.24"/>
		</g>
		<g>
			<polygon class="st30" points="241.68,247.8 109.07,247.8 105.35,208.99 244.66,208.99 			"/>
			<polygon class="st30" points="220.07,339.03 130.68,339.03 117.27,247.8 233.48,247.8 			"/>
			<path class="st5" d="M225.72,258.9l1.59-11.1h-113.4l1.33,9.25C150.98,267.26,189.27,266.9,225.72,258.9z"/>
		</g>
	</g>
	<g>
		<rect x="291.71" y="253.07" class="st31" width="76.7" height="92.04"/>
		<rect x="291.71" y="253.07" class="st7" width="76.7" height="92.04"/>
		<linearGradient id="SVGID_4_" gradientUnits="userSpaceOnUse" x1="257.1773" y1="26.0977" x2="402.9426" y2="300.8384">
			<stop  offset="2.128803e-03" style="stop-color:#BFDCFD"/>
			<stop  offset="0.9978" style="stop-color:#669FE2"/>
		</linearGradient>
		
			<path style="fill:url(#SVGID_4_);stroke:#4B5877;stroke-width:4;stroke-linecap:round;stroke-linejoin:round;stroke-miterlimit:10;" d="
			M456.61,270.84h-253.1c-6.35,0-11.5-5.15-11.5-11.5V67.6c0-6.35,5.15-11.5,11.5-11.5h253.1c6.35,0,11.5,5.15,11.5,11.5v191.74
			C468.11,265.69,462.96,270.84,456.61,270.84z"/>
		<path class="st5" d="M192.01,232.5v26.84c0,6.35,5.15,11.5,11.5,11.5h253.1c6.35,0,11.5-5.15,11.5-11.5V232.5"/>
		<rect x="205.43" y="69.51" class="st33" width="249.26" height="149.56"/>
		<polygon class="st10" points="291.18,69.51 241.48,219.07 256.47,219.07 314.9,69.51 		"/>
		<polygon class="st10" points="327.88,69.51 278.18,219.07 352.97,219.07 411.41,69.51 		"/>
	</g>
	<g>
		<g>
			
				<linearGradient id="SVGID_5_" gradientUnits="userSpaceOnUse" x1="318.0167" y1="-110.7144" x2="419.3208" y2="80.2253" gradientTransform="matrix(1 -3.081358e-03 3.081358e-03 1 74.4691 240.1093)">
				<stop  offset="2.128803e-03" style="stop-color:#BFDCFD"/>
				<stop  offset="0.9978" style="stop-color:#669FE2"/>
			</linearGradient>
			
				<path style="fill:url(#SVGID_5_);stroke:#4B5877;stroke-width:4;stroke-linecap:round;stroke-linejoin:round;stroke-miterlimit:10;" d="
				M537.08,294.43l-187.54,0.58c-6.7,0.02-12.15-5.4-12.17-12.1L337,165.2c-0.02-6.7,5.4-12.15,12.1-12.17l187.54-0.58
				c6.7-0.02,12.15,5.4,12.17,12.1l0.36,117.7C549.2,288.96,543.78,294.41,537.08,294.43z"/>
			
				<rect x="349.81" y="166.18" transform="matrix(1 -3.081358e-03 3.081358e-03 1 -0.684 1.369)" class="st33" width="188.29" height="112.97"/>
			<polygon class="st10" points="414.42,166.27 377.22,279.36 388.54,279.33 432.33,166.22 			"/>
			<polygon class="st10" points="442.14,166.19 404.94,279.27 461.44,279.1 505.23,165.99 			"/>
		</g>
		<g>
			
				<linearGradient id="SVGID_6_" gradientUnits="userSpaceOnUse" x1="177.5077" y1="301.2019" x2="234.1669" y2="407.9941" gradientTransform="matrix(-1 3.081358e-03 -3.081358e-03 -1 637.0118 672.7552)">
				<stop  offset="2.128803e-03" style="stop-color:#BFDCFD"/>
				<stop  offset="0.9978" style="stop-color:#669FE2"/>
			</linearGradient>
			
				<path style="fill:url(#SVGID_6_);stroke:#4B5877;stroke-width:4;stroke-linecap:round;stroke-linejoin:round;stroke-miterlimit:10;" d="
				M347.36,295l183.91-0.57c7.71-0.02,13.97,6.2,14,13.91c0,0-24.75,34.22-32.45,34.24l-183.91,0.57c-7.71,0.02-13.97-6.2-14-13.91
				C314.9,329.24,339.65,295.02,347.36,295z"/>
		</g>
	</g>
	<g>
		<g>
			<path class="st34" d="M650.62,152.17h-61.1v62.24c7.6,10.57,18.47,17.2,30.55,17.2c12.08,0,22.95-6.63,30.55-17.2V152.17z"/>
			<linearGradient id="SVGID_7_" gradientUnits="userSpaceOnUse" x1="435.9508" y1="192.0735" x2="626.8525" y2="551.8882">
				<stop  offset="3.224206e-03" style="stop-color:#77C16B"/>
				<stop  offset="0.9978" style="stop-color:#5CA06B"/>
			</linearGradient>
			
				<path style="fill:url(#SVGID_7_);stroke:#4B5877;stroke-width:4;stroke-linecap:round;stroke-linejoin:round;stroke-miterlimit:10;" d="
				M606.91,202.41c-9.91,2.59-17.64,1.55-27.03,6.43c-14.32,7.44-29.42,15.55-37.71,27c-7.88,10.88-40.9,116.42-40.9,116.42
				l-108.51,12.01v58.24c0,0,118.6,0,229.96,0L606.91,202.41z"/>
			<path class="st38" d="M737.56,276.42c-0.22-1.03-0.45-2.06-0.68-3.08c-3.35-15.03-7.85-30.58-14.9-44.31
				c-1.87-3.65-3.99-7.38-6.93-10.29c-11.01-10.9-44.29-20.56-55.89-25.3c-8.86-3.62-9.21,3.48-18.58,5.25
				c-2.13,0.4-17.21,2.1-17.88,3.73c-0.09,0.22-11.05,20.12-16.97,59.14c-5.94,39.16-6.21,160.97-6.21,160.97
				c77.13,0,158.35,0,158.35,0c-0.23,0-7.71-67.76-8.6-74.02C745.85,324.52,742.66,300.13,737.56,276.42z"/>
			<linearGradient id="SVGID_8_" gradientUnits="userSpaceOnUse" x1="556.022" y1="128.369" x2="746.9238" y2="488.1838">
				<stop  offset="3.224206e-03" style="stop-color:#77C16B"/>
				<stop  offset="0.9978" style="stop-color:#5CA06B"/>
			</linearGradient>
			
				<path style="fill:url(#SVGID_8_);stroke:#4B5877;stroke-width:4;stroke-linecap:round;stroke-linejoin:round;stroke-miterlimit:10;" d="
				M737.56,276.42c-0.22-1.03-0.45-2.06-0.68-3.08c-3.35-15.03-7.85-30.58-14.9-44.31c-1.87-3.65-3.99-7.38-6.93-10.29
				c-11.01-10.9-44.29-20.56-55.89-25.3c-8.86-3.62-9.21,3.48-18.58,5.25c-2.13,0.4-17.21,2.1-17.88,3.73
				c-0.09,0.22-11.05,20.12-16.97,59.14c-5.94,39.16-6.21,160.97-6.21,160.97c77.13,0,158.35,0,158.35,0
				c-0.23,0-7.71-67.76-8.6-74.02C745.85,324.52,742.66,300.13,737.56,276.42z"/>
			<path class="st5" d="M681.15,422.52c8.05,0,15.72,0,22.9,0l-23.48-135.21C679.88,332.22,681.6,377.48,681.15,422.52z"/>
			<path class="st29" d="M556.1,263.72c0,0-2.65,26.83-3.86,81.75s0,77.06,0,77.06"/>
			<line class="st29" x1="677.63" y1="270.42" x2="704.04" y2="422.52"/>
			<linearGradient id="SVGID_9_" gradientUnits="userSpaceOnUse" x1="552.5511" y1="130.2106" x2="743.4528" y2="490.0253">
				<stop  offset="3.224206e-03" style="stop-color:#77C16B"/>
				<stop  offset="0.9978" style="stop-color:#5CA06B"/>
			</linearGradient>
			<path class="st26" d="M606.91,202.41c0,0-5.9-1.71-11.8-5.9s-7.23-7.04-7.23-7.04l-9.71,18.84c0,0,0.76,4.19,8.18,9.71
				c7.42,5.52,14.08,8.18,14.08,8.18L606.91,202.41z"/>
			<linearGradient id="SVGID_10_" gradientUnits="userSpaceOnUse" x1="593.0137" y1="108.7429" x2="783.9155" y2="468.5576">
				<stop  offset="3.224206e-03" style="stop-color:#77C16B"/>
				<stop  offset="0.9978" style="stop-color:#5CA06B"/>
			</linearGradient>
			<path class="st27" d="M622.7,202.41c0,0,8.45-3.69,14.35-7.88s14.39-13.63,14.39-13.63l13.89,14.85c0,0-9.33,13.89-16.75,19.41
				c-7.42,5.52-19.41,11.04-19.41,11.04L622.7,202.41z"/>
		</g>
		<g>
			<g>
				<g>
					<g class="st17">
						<path class="st42" d="M649.42,146.39h-67.92v57.58c8.45,9.78,20.53,15.91,33.96,15.91s25.52-6.13,33.96-15.91V146.39z"/>
						<path class="st43" d="M608.22,202.51c0,0,4.27,2.8,12.35,0.56"/>
						<path class="st20" d="M584.28,163.98v16.11c8.11,9.96,18.2,18.18,31.23,18.18c12.97,0,23.04-8.16,31.13-18.07v-16.22H584.28z"
							/>
					</g>
					<path class="st44" d="M673.83,67.73c-1.03-6.45-3.55-10.76-7.03-16.39c-2.45-3.96-3.52-6.61-7.34-8.19
						c-3.05-1.26-8.6-4.48-8.81-4.62c-2.99-1.99-4.69-3-6.23-5.68c-5.07-8.78-18.7-8.25-27.57-8.3c-3.03-0.02-5.91-0.87-8.86-1.01
						c-6.23-0.3-12.48,3.34-18.44,5.09c-2.99,0.88-5.93,1.93-8.81,3.14c-0.98,0.41-6.61,4.47-7.02,4.24c0,0,4.39-0.14,7.24,2.01
						c-0.98,0.57-2,1.06-3.02,1.59c-0.89,0.47-1.79,0.98-2.68,1.62c-6.98,5.07-11.36,9.91-14.97,17.49
						c-2.64,5.55-7.53,15.77-7.52,22c0,2.67,4.79-3.14,4.74-0.62c-0.03,1.5-0.77,4.59-1.51,7.3c-1,3.67-1.22,7.5-0.67,11.25
						c0.78,5.34,2.06,12.2,3.47,12.19c0,0,56.4-0.29,56.4-0.29l0.03,0l0.03,0c0,0,56.4-0.33,56.4-0.33
						c3.09-5.09,4.1-11.2,3.62-17.04c-0.21-2.46-0.68-4.88-1.37-7.15c-0.46-1.49-1.14-4.75-1.14-4.75s2.27,0.81,4.41,2
						C677.47,80.61,674.27,70.5,673.83,67.73z"/>
					<g>
						<g>
							<g>
								<path class="st34" d="M653.23,135.66l6.65,2.03c5.57,1.7,11.07-1.87,12.27-7.98l2.47-12.5c1.21-6.11-2.39-15.41-7.91-14.15
									c-2.8,0.64-8.63,8.01-8.63,8.01L653.23,135.66z"/>
							</g>
							<line class="st29" x1="669.11" y1="109.9" x2="664.12" y2="118.95"/>
						</g>
						<g>
							<g>
								<path class="st34" d="M576.72,135.66l-6.65,2.03c-5.57,1.7-11.07-1.87-12.27-7.98l-2.47-12.5
									c-1.21-6.11,2.39-15.41,7.91-14.15c2.8,0.64,8.63,8.01,8.63,8.01L576.72,135.66z"/>
							</g>
							<line class="st29" x1="560.84" y1="109.9" x2="565.83" y2="118.95"/>
						</g>
						<path class="st34" d="M664.59,99.49c-0.23-5.77-0.44-11.52-1.41-17.2c-0.4-2.34-0.78-4.8-1.29-7.24
							c-0.61-2.9-1.4-5.76-2.62-8.34c-3.89-8.2-12.48-14.34-21.91-14.34c-0.47,0-0.94,0-1.41,0.01c-3.67,7.48-11.94,9.29-20.5,9.31
							c-8.56-0.02-16.83-1.83-20.5-9.31c-0.47-0.01-0.94-0.01-1.41-0.01c-9.43,0-18.02,6.14-21.91,14.34
							c-1.22,2.58-2.01,5.44-2.62,8.34c-0.51,2.44-0.89,4.9-1.29,7.24c-0.97,5.68-1.18,11.43-1.41,17.2
							c-0.5,12.47,1.37,26.2,2.41,32.64c0.55,3.43,1.43,8.41,2.21,11.79c1.55,6.67,2.59,11.96,6.52,17.72
							c0.29,0.38,0.58,0.75,0.89,1.13c0.1,0.13,0.21,0.25,0.31,0.38c0.21,0.25,0.41,0.51,0.63,0.76c0.13,0.15,0.26,0.31,0.39,0.46
							c0.2,0.23,0.39,0.46,0.59,0.68c0.14,0.16,0.29,0.32,0.43,0.48c0.2,0.22,0.39,0.44,0.59,0.66c0.15,0.17,0.31,0.33,0.46,0.5
							c0.2,0.21,0.4,0.43,0.6,0.64c0.16,0.17,0.33,0.34,0.49,0.51c0.2,0.21,0.4,0.42,0.61,0.63c0.17,0.17,0.34,0.34,0.52,0.52
							c0.2,0.2,0.41,0.41,0.61,0.61c0.18,0.18,0.36,0.35,0.55,0.53c0.2,0.2,0.41,0.4,0.62,0.59c0.18,0.17,0.37,0.35,0.55,0.52
							c0.21,0.2,0.42,0.4,0.63,0.59c0.19,0.17,0.38,0.34,0.57,0.52c0.21,0.19,0.42,0.38,0.64,0.58c0.19,0.17,0.39,0.34,0.59,0.51
							c0.21,0.19,0.43,0.38,0.65,0.56c0.2,0.17,0.4,0.33,0.59,0.5c0.22,0.18,0.44,0.37,0.66,0.55c0.2,0.17,0.4,0.33,0.6,0.49
							c0.22,0.18,0.44,0.36,0.66,0.54c0.2,0.16,0.41,0.32,0.61,0.48c0.22,0.17,0.45,0.35,0.67,0.52c0.2,0.16,0.41,0.31,0.61,0.47
							c0.22,0.17,0.45,0.34,0.67,0.51c0.21,0.15,0.41,0.3,0.62,0.45c0.22,0.16,0.45,0.32,0.67,0.48c0.06,0.04,0.12,0.09,0.17,0.13
							c1.06,0.75,1.93,1.45,2.69,2.11c3.92,3.36,8.78,5.48,13.93,5.87c0.24,0.02,0.49,0.03,0.73,0.04c0.34,0.03,0.67,0.04,1,0.04
							c0.1,0,0.19,0,0.28,0c0.02,0,0.03,0,0.05,0c0.29,0.01,0.57-0.01,0.85-0.02c0.28,0.01,0.57,0.03,0.85,0.02
							c0.02,0,0.03,0,0.05,0c0.09,0,0.19,0.01,0.28,0c0.33,0,0.66-0.01,1-0.04c0.24-0.01,0.49-0.03,0.73-0.04
							c5.15-0.39,10.01-2.51,13.93-5.87c0.76-0.65,1.63-1.36,2.69-2.11c0.06-0.04,0.12-0.08,0.17-0.13
							c0.22-0.16,0.45-0.32,0.67-0.48c0.21-0.15,0.41-0.3,0.62-0.45c0.22-0.17,0.45-0.34,0.67-0.51c0.21-0.16,0.41-0.31,0.61-0.47
							c0.22-0.17,0.45-0.35,0.67-0.52c0.2-0.16,0.41-0.32,0.61-0.48c0.22-0.18,0.44-0.36,0.66-0.54c0.2-0.16,0.4-0.33,0.6-0.49
							c0.22-0.18,0.44-0.37,0.66-0.55c0.2-0.17,0.4-0.33,0.59-0.5c0.22-0.19,0.43-0.37,0.65-0.56c0.2-0.17,0.39-0.34,0.59-0.51
							c0.21-0.19,0.43-0.38,0.64-0.58c0.19-0.17,0.38-0.34,0.57-0.52c0.21-0.2,0.42-0.39,0.63-0.59c0.18-0.17,0.37-0.34,0.55-0.52
							c0.21-0.2,0.41-0.4,0.62-0.59c0.18-0.18,0.37-0.35,0.55-0.53c0.21-0.2,0.41-0.41,0.61-0.61c0.17-0.17,0.35-0.34,0.52-0.52
							c0.21-0.21,0.41-0.42,0.61-0.63c0.16-0.17,0.33-0.34,0.49-0.51c0.2-0.21,0.4-0.43,0.6-0.64c0.15-0.17,0.31-0.33,0.46-0.5
							c0.2-0.22,0.4-0.44,0.59-0.66c0.14-0.16,0.29-0.32,0.43-0.48c0.2-0.23,0.39-0.46,0.59-0.68c0.13-0.15,0.26-0.31,0.39-0.46
							c0.21-0.25,0.42-0.51,0.63-0.76c0.1-0.13,0.21-0.25,0.31-0.38c0.3-0.38,0.6-0.76,0.89-1.13c3.93-5.76,4.97-11.05,6.52-17.72
							c0.78-3.38,1.66-8.36,2.21-11.79C663.22,125.69,665.09,111.95,664.59,99.49z"/>
					</g>
					<path class="st29" d="M607.02,137.53c0,0,1.97,3.22,8.44,3.22s8.44-3.22,8.44-3.22"/>
					<ellipse class="st22" cx="615.98" cy="169.84" rx="11.69" ry="2.48"/>
					<g>
						<ellipse class="st23" cx="592.4" cy="106.93" rx="12.01" ry="4.39"/>
						<ellipse class="st23" cx="638.51" cy="106.93" rx="12.01" ry="4.39"/>
						<path class="st29" d="M599.77,113.36c0-1.83-3.3-3.32-7.37-3.32s-7.37,1.48-7.37,3.32"/>
						<path class="st29" d="M631.15,113.36c0-1.83,3.3-3.32,7.37-3.32s7.37,1.48,7.37,3.32"/>
						<g>
							<path class="st29" d="M648.29,126.39l-18.58,0.09c-3.85,0.02-7.08-2.83-7.46-6.58l-1.31-12.92c-0.27-2.7,1.88-5.04,4.65-5.06
								l26.57-0.13c2.77-0.01,4.95,2.31,4.7,5.01l-1.18,12.94C655.34,123.49,652.13,126.37,648.29,126.39z"/>
						</g>
						<g>
							<path class="st29" d="M601.45,126.39l-18.58,0.09c-3.85,0.02-7.08-2.83-7.46-6.58l-1.31-12.92c-0.27-2.7,1.88-5.04,4.65-5.06
								l26.57-0.13c2.77-0.01,4.95,2.31,4.7,5.01l-1.18,12.94C608.5,123.49,605.3,126.37,601.45,126.39z"/>
						</g>
						<g>
							<g>
								<path class="st29" d="M600.7,96.41c0,0-8.68-2.14-14.39-1.61c-3.24,0.3-8.27,1.31-8.27,1.31"/>
							</g>
							<g>
								<path class="st29" d="M630.21,96.41c0,0,8.68-2.14,14.38-1.61c3.24,0.3,8.27,1.31,8.27,1.31"/>
							</g>
						</g>
						<g>
							<line class="st29" x1="567.12" y1="110.11" x2="573.75" y2="110.11"/>
							<line class="st29" x1="657.16" y1="110.11" x2="663.79" y2="110.11"/>
							<line class="st29" x1="611.07" y1="110.11" x2="619.84" y2="110.11"/>
						</g>
					</g>
					<g>
						<ellipse class="st23" cx="615.46" cy="130.72" rx="7.31" ry="1.55"/>
					</g>
					<path class="st24" d="M659.94,151.94c-0.24,0.02-0.48,0.02-0.73,0.01c-0.75-0.02-1.55-0.15-2.41-0.39
						c-0.15,0.21-0.3,0.43-0.45,0.66c-2.12,3.17-4.67,7.42-7.66,7.28c-0.21-0.01-0.43-0.04-0.65-0.1
						c-3.72-0.97-3.33-9.12-5.77-11.63c-3.18-3.27-6.83-5.78-9.96-6.35c-2.41-0.44-4.86-0.74-7.34-0.77c0,0,0,0,0,0l0,0
						c-2.46,0.01-4.96,0.29-7.52,0.98c-0.52,0.21-1.1,0.36-1.71,0.51c-0.1-0.02-0.19-0.05-0.28-0.07c-0.1,0.02-0.19,0.05-0.28,0.07
						c-0.61-0.14-1.2-0.3-1.71-0.51c-2.56-0.7-5.06-0.97-7.52-0.98l0,0c0,0,0,0,0,0c-2.49,0.03-4.93,0.33-7.34,0.77
						c-3.13,0.57-6.77,3.08-9.96,6.35c-2.44,2.51-2.04,10.66-5.77,11.63c-0.22,0.06-0.43,0.09-0.65,0.1
						c-2.99,0.14-5.54-4.11-7.66-7.28c-0.15-0.23-0.3-0.45-0.45-0.66c-0.86,0.24-1.66,0.37-2.41,0.39c-0.25,0.01-0.49,0-0.73-0.01
						c0.71,1.9,1.52,3.77,2.45,5.61c1.19,2.37,26.25,25.53,27.45,25.8c0.19,0.04,0.36,0.13,0.52,0.23c0.09,0.06,0.18,0.11,0.25,0.19
						c0.07,0.07,0.15,0.13,0.23,0.19c0.2,0.16,0.42,0.3,0.7,0.4c2.86,1.03,5.58,1.63,8.53,1.71c0,0,0,0,0,0l0,0
						c0.81,0,1.63-0.02,2.49-0.09c0.28-0.02,0.54-0.07,0.79-0.14c0.09,0.02,0.19,0.03,0.28,0.05c0.09-0.02,0.19-0.03,0.28-0.05
						c0.17,0.04,0.35,0.06,0.53,0.09h0h0c0.18-0.03,0.36-0.05,0.53-0.09c0.09,0.02,0.19,0.03,0.28,0.05
						c0.09-0.02,0.19-0.03,0.28-0.05c0.25,0.06,0.51,0.11,0.79,0.14c0.85,0.07,1.68,0.1,2.49,0.09l0,0c0,0,0,0,0,0
						c2.94-0.08,5.67-0.68,8.53-1.71c0.28-0.1,0.5-0.25,0.7-0.4c0.08-0.06,0.16-0.12,0.23-0.19c0.07-0.07,0.16-0.13,0.25-0.19
						c0.15-0.1,0.32-0.18,0.52-0.23c1.2-0.26,26.27-23.43,27.45-25.8C658.42,155.71,659.23,153.84,659.94,151.94z M615.46,165.76
						c-4.61-0.17-9.27-0.02-13.85,0.59c-1.47-0.12-2.95-0.36-4.44-0.8c-7.73-2.26-7.56-11.61-2.87-15.58
						c0.5-0.22,1.02-0.39,1.58-0.47c2.13-0.32,4.25-0.6,6.38-0.83c4.02,0.99,8.88-0.12,13.19-0.48c4.32,0.36,9.18,1.48,13.19,0.48
						c2.13,0.23,4.25,0.51,6.38,0.83c0.56,0.08,1.09,0.25,1.58,0.47c4.69,3.98,4.86,13.32-2.87,15.58c-1.49,0.43-2.96,0.68-4.44,0.8
						C624.73,165.74,620.07,165.59,615.46,165.76z"/>
					<path class="st29" d="M664.59,99.49c-0.23-5.77-0.44-11.52-1.41-17.2c-0.4-2.34-0.78-4.8-1.29-7.24
						c-0.61-2.9-1.4-5.76-2.62-8.34c-3.89-8.2-12.48-14.34-21.91-14.34c-0.47,0-0.94,0-1.41,0.01c-3.67,7.48-11.94,9.29-20.5,9.31
						c-8.56-0.02-16.83-1.83-20.5-9.31c-0.47-0.01-0.94-0.01-1.41-0.01c-9.43,0-18.02,6.14-21.91,14.34
						c-1.22,2.58-2.01,5.44-2.62,8.34c-0.51,2.44-0.89,4.9-1.29,7.24c-0.97,5.68-1.18,11.43-1.41,17.2
						c-0.5,12.47,1.37,26.2,2.41,32.64c0.55,3.43,1.43,8.41,2.21,11.79c1.55,6.67,2.59,11.96,6.52,17.72
						c0.29,0.38,0.58,0.75,0.89,1.13c0.1,0.13,0.21,0.25,0.31,0.38c0.21,0.25,0.41,0.51,0.63,0.76c0.13,0.15,0.26,0.31,0.39,0.46
						c0.2,0.23,0.39,0.46,0.59,0.68c0.14,0.16,0.29,0.32,0.43,0.48c0.2,0.22,0.39,0.44,0.59,0.66c0.15,0.17,0.31,0.33,0.46,0.5
						c0.2,0.21,0.4,0.43,0.6,0.64c0.16,0.17,0.33,0.34,0.49,0.51c0.2,0.21,0.4,0.42,0.61,0.63c0.17,0.17,0.34,0.34,0.52,0.52
						c0.2,0.2,0.41,0.41,0.61,0.61c0.18,0.18,0.36,0.35,0.55,0.53c0.2,0.2,0.41,0.4,0.62,0.59c0.18,0.17,0.37,0.35,0.55,0.52
						c0.21,0.2,0.42,0.4,0.63,0.59c0.19,0.17,0.38,0.34,0.57,0.52c0.21,0.19,0.42,0.38,0.64,0.58c0.19,0.17,0.39,0.34,0.59,0.51
						c0.21,0.19,0.43,0.38,0.65,0.56c0.2,0.17,0.4,0.33,0.59,0.5c0.22,0.18,0.44,0.37,0.66,0.55c0.2,0.17,0.4,0.33,0.6,0.49
						c0.22,0.18,0.44,0.36,0.66,0.54c0.2,0.16,0.41,0.32,0.61,0.48c0.22,0.17,0.45,0.35,0.67,0.52c0.2,0.16,0.41,0.31,0.61,0.47
						c0.22,0.17,0.45,0.34,0.67,0.51c0.21,0.15,0.41,0.3,0.62,0.45c0.22,0.16,0.45,0.32,0.67,0.48c0.06,0.04,0.12,0.09,0.17,0.13
						c1.06,0.75,1.93,1.45,2.69,2.11c3.92,3.36,8.78,5.48,13.93,5.87c0.24,0.02,0.49,0.03,0.73,0.04c0.34,0.03,0.67,0.04,1,0.04
						c0.1,0,0.19,0,0.28,0c0.02,0,0.03,0,0.05,0c0.29,0.01,0.57-0.01,0.85-0.02c0.28,0.01,0.57,0.03,0.85,0.02c0.02,0,0.03,0,0.05,0
						c0.09,0,0.19,0.01,0.28,0c0.33,0,0.66-0.01,1-0.04c0.24-0.01,0.49-0.03,0.73-0.04c5.15-0.39,10.01-2.51,13.93-5.87
						c0.76-0.65,1.63-1.36,2.69-2.11c0.06-0.04,0.12-0.08,0.17-0.13c0.22-0.16,0.45-0.32,0.67-0.48c0.21-0.15,0.41-0.3,0.62-0.45
						c0.22-0.17,0.45-0.34,0.67-0.51c0.21-0.16,0.41-0.31,0.61-0.47c0.22-0.17,0.45-0.35,0.67-0.52c0.2-0.16,0.41-0.32,0.61-0.48
						c0.22-0.18,0.44-0.36,0.66-0.54c0.2-0.16,0.4-0.33,0.6-0.49c0.22-0.18,0.44-0.37,0.66-0.55c0.2-0.17,0.4-0.33,0.59-0.5
						c0.22-0.19,0.43-0.37,0.65-0.56c0.2-0.17,0.39-0.34,0.59-0.51c0.21-0.19,0.43-0.38,0.64-0.58c0.19-0.17,0.38-0.34,0.57-0.52
						c0.21-0.2,0.42-0.39,0.63-0.59c0.18-0.17,0.37-0.34,0.55-0.52c0.21-0.2,0.41-0.4,0.62-0.59c0.18-0.18,0.37-0.35,0.55-0.53
						c0.21-0.2,0.41-0.41,0.61-0.61c0.17-0.17,0.35-0.34,0.52-0.52c0.21-0.21,0.41-0.42,0.61-0.63c0.16-0.17,0.33-0.34,0.49-0.51
						c0.2-0.21,0.4-0.43,0.6-0.64c0.15-0.17,0.31-0.33,0.46-0.5c0.2-0.22,0.4-0.44,0.59-0.66c0.14-0.16,0.29-0.32,0.43-0.48
						c0.2-0.23,0.39-0.46,0.59-0.68c0.13-0.15,0.26-0.31,0.39-0.46c0.21-0.25,0.42-0.51,0.63-0.76c0.1-0.13,0.21-0.25,0.31-0.38
						c0.3-0.38,0.6-0.76,0.89-1.13c3.93-5.76,4.97-11.05,6.52-17.72c0.78-3.38,1.66-8.36,2.21-11.79
						C663.22,125.69,665.09,111.95,664.59,99.49z"/>
					<path class="st45" d="M594.79,150.05c0,0,5.26,10.71,20.66,10.71s20.66-10.71,20.66-10.71s-6.65-0.15-20.68-0.15
						S594.79,150.05,594.79,150.05z"/>
				</g>
			</g>
		</g>
	</g>
	<path class="st45" d="M84.3,251.84L84.3,251.84c0,7.31-5.92,13.23-13.23,13.23v0c7.31,0,13.23,5.92,13.23,13.23h0
		c0-7.31,5.92-13.23,13.23-13.23v0C90.23,265.07,84.3,259.15,84.3,251.84z"/>
	<path class="st45" d="M473.54,189.18L473.54,189.18c0,7.31-5.92,13.23-13.23,13.23v0c7.31,0,13.23,5.92,13.23,13.23h0
		c0-7.31,5.92-13.23,13.23-13.23v0C479.46,202.41,473.54,196.49,473.54,189.18z"/>
	<path class="st45" d="M261.07,104.44L261.07,104.44c0,7.31-5.92,13.23-13.23,13.23v0c7.31,0,13.23,5.92,13.23,13.23h0
		c0-7.31,5.92-13.23,13.23-13.23v0C266.99,117.67,261.07,111.74,261.07,104.44z"/>
	<rect x="-143.99" y="309.44" class="st46" width="952.52" height="345.86"/>
</g>
</svg>
