<?xml version="1.0" encoding="utf-8"?>
<!-- Generator: Adobe Illustrator 28.0.0, SVG Export Plug-In . SVG Version: 6.00 Build 0)  -->
<svg version="1.1" id="Layer_1" xmlns="http://www.w3.org/2000/svg" xmlns:xlink="http://www.w3.org/1999/xlink" x="0px" y="0px"
	 viewBox="0 0 452 229" style="enable-background:new 0 0 452 229;" xml:space="preserve">
<style type="text/css">
	.st0{fill:url(#SVGID_1_);stroke:#4B5877;stroke-width:3;stroke-linecap:round;stroke-linejoin:round;stroke-miterlimit:10;}
	
		.st1{fill:url(#SVGID_00000036219333098098682270000003373835126473374855_);stroke:#4B5877;stroke-width:3;stroke-linecap:round;stroke-linejoin:round;stroke-miterlimit:10;}
	
		.st2{fill:url(#SVGID_00000096761377709407322500000009276521751712264844_);stroke:#4B5877;stroke-width:3;stroke-linecap:round;stroke-linejoin:round;stroke-miterlimit:10;}
	.st3{fill:none;stroke:#4B5877;stroke-width:3;stroke-linecap:round;stroke-linejoin:round;stroke-miterlimit:10;}
	.st4{fill:#F78F5C;stroke:#4B5877;stroke-width:3;stroke-linecap:round;stroke-linejoin:round;stroke-miterlimit:10;}
	.st5{opacity:0.2;fill:#4B5877;enable-background:new    ;}
	.st6{fill:#669FE2;stroke:#4B5877;stroke-width:3;stroke-linecap:round;stroke-linejoin:round;stroke-miterlimit:10;}
	.st7{opacity:0.3;fill:#4B5877;enable-background:new    ;}
	
		.st8{fill:url(#SVGID_00000173118720357853401190000011443025515752845736_);stroke:#4B5877;stroke-width:3;stroke-linecap:round;stroke-linejoin:round;stroke-miterlimit:10;}
	.st9{fill:#ADCCF6;stroke:#4B5877;stroke-width:3;stroke-linecap:round;stroke-linejoin:round;stroke-miterlimit:10;}
	.st10{opacity:0.2;fill:#FFFFFF;enable-background:new    ;}
	.st11{fill:#F6D8B2;stroke:#4B5877;stroke-width:3;stroke-linecap:round;stroke-linejoin:round;stroke-miterlimit:10;}
	
		.st12{fill:url(#SVGID_00000003106027698759745190000012991197563766120866_);stroke:#4B5877;stroke-width:3;stroke-linecap:round;stroke-linejoin:round;stroke-miterlimit:10;}
	.st13{fill:#5CA06B;stroke:#4B5877;stroke-width:3;stroke-linecap:round;stroke-linejoin:round;stroke-miterlimit:10;}
	
		.st14{fill:url(#SVGID_00000081605972897975234370000014190863578012819358_);stroke:#4B5877;stroke-width:3;stroke-linecap:round;stroke-linejoin:round;stroke-miterlimit:10;}
	
		.st15{fill:url(#SVGID_00000096770050974797541450000003437345353756509604_);stroke:#4B5877;stroke-width:3;stroke-linecap:round;stroke-linejoin:round;stroke-miterlimit:10;}
	
		.st16{fill:url(#SVGID_00000176036420313705931930000012607675500831625647_);stroke:#4B5877;stroke-width:3;stroke-linecap:round;stroke-linejoin:round;stroke-miterlimit:10;}
	.st17{display:none;}
	
		.st18{display:inline;fill:#F6D8B2;stroke:#504E51;stroke-width:3;stroke-linecap:round;stroke-linejoin:round;stroke-miterlimit:10;}
	.st19{display:inline;fill:none;stroke:#504E51;stroke-width:3;stroke-linecap:round;stroke-linejoin:round;stroke-miterlimit:10;}
	.st20{display:inline;fill:#E7BD9B;}
	.st21{fill:#948D66;stroke:#4B5877;stroke-width:3;stroke-linecap:round;stroke-linejoin:round;stroke-miterlimit:10;}
	.st22{opacity:0.6;fill:#948D66;enable-background:new    ;}
	.st23{fill:#E7BD9B;}
	.st24{opacity:0.3;fill:#6D6A5D;enable-background:new    ;}
	.st25{fill:#FFFFFF;stroke:#4B5877;stroke-width:3;stroke-linecap:round;stroke-linejoin:round;stroke-miterlimit:10;}
	.st26{fill:#FFFFFF;}
</style>
<g>
	<g>
		<g>
			
				<linearGradient id="SVGID_1_" gradientUnits="userSpaceOnUse" x1="111.6176" y1="294.3983" x2="227.4186" y2="-23.2858" gradientTransform="matrix(1 0 0 -1 0 229.8898)">
				<stop  offset="8.597883e-03" style="stop-color:#CAE062"/>
				<stop  offset="0.9978" style="stop-color:#5CA06B"/>
			</linearGradient>
			<path class="st0" d="M134.4,134.5c0,0-10.6-18.7-4.2-31.4c6.4-12.7,14.9-13.9,16.7-19.2c1.8-5.2,0.7-22.8,6.6-29.3
				s12.4-2,15.6-4.7c3.3-2.7,14.4-22.5,26.5-14.6S193.9,53,194,54.9s14.5,10.2,1.1,19.3C181.7,83.3,164.2,134.4,134.4,134.5z"/>
			
				<linearGradient id="SVGID_00000106114490730857345680000014289308971761049221_" gradientUnits="userSpaceOnUse" x1="53.6954" y1="273.2848" x2="169.4964" y2="-44.3993" gradientTransform="matrix(1 0 0 -1 0 229.8898)">
				<stop  offset="8.597883e-03" style="stop-color:#CAE062"/>
				<stop  offset="0.9978" style="stop-color:#5CA06B"/>
			</linearGradient>
			
				<path style="fill:url(#SVGID_00000106114490730857345680000014289308971761049221_);stroke:#4B5877;stroke-width:3;stroke-linecap:round;stroke-linejoin:round;stroke-miterlimit:10;" d="
				M117.1,119.1c0,0,8.8-33.5,6.9-40.4c0,0-0.7-6.8-5.3-9.8s-7.1-3.2-7.9-5.2c-0.8-2,1.9-21.3-3.7-24.5c-5.6-3.2-10.1,2.1-12.1,1.5
				c-2-0.5-21.2-30.9-33.4-17.2s12.3,26,10.1,27.7c-2.2,1.7-13.2,10.5,2,18.3c15,7.7,17.5,7,16.4,9.3c-2.7,5.1-9.4,13.8,3.6,24.6
				S117.1,119.1,117.1,119.1z"/>
			
				<linearGradient id="SVGID_00000056426904297695477520000014847457469877752230_" gradientUnits="userSpaceOnUse" x1="4.1409" y1="255.2213" x2="119.9418" y2="-62.4628" gradientTransform="matrix(1 0 0 -1 0 229.8898)">
				<stop  offset="8.597883e-03" style="stop-color:#CAE062"/>
				<stop  offset="0.9978" style="stop-color:#5CA06B"/>
			</linearGradient>
			
				<path style="fill:url(#SVGID_00000056426904297695477520000014847457469877752230_);stroke:#4B5877;stroke-width:3;stroke-linecap:round;stroke-linejoin:round;stroke-miterlimit:10;" d="
				M102,129c0.3-0.3-4.3-4.6-4.8-5.1c-4.6-5.1-11.7-7.5-18.5-6.8c-6.3,0.7-10.3,5.1-16,7.3c-2.3,0.9-16.7-1.3-19.9,7.9
				s2.7,9.8,1.2,14.1c-1.5,4.3-8.8,12.2-9.2,20.5c-0.4,8.3,2.9,17.7,9.2,18.2c9.2,0.8,13-16.1,14-19.2c0.8-2.1,1.4-4.6,4-3.6
				c4.8,1.8,9.8-3,12.3-8.3c3.7-7.8,1-15.1,4.1-16.4c2.3-0.9,7.1,1.5,12.6-0.8C93.9,135.8,102,129,102,129z"/>
			<path class="st3" d="M80,42.9c0,0,16.9,11.7,29.8,51.8s14.2,56.4,14.2,56.4"/>
			<path class="st3" d="M56.6,150.8c0,0,10.4-28.2,31.7-27.2c8,0.4,14.2,4.9,18.9,10.3c7.8,9.1,11.3,20.8,11.3,20.8"/>
			<path class="st3" d="M129,161.1c2.9-21.7,9.4-43,19.8-61.7c8.7-15.6,21.1-35.4,35.8-44.1c0.1-0.1,0.2-0.1,0.3-0.2"/>
		</g>
		<g>
			<polygon class="st4" points="178.5,178 87.9,178 85.3,151.5 180.6,151.5 			"/>
			<polygon class="st4" points="163.8,240.4 102.7,240.4 93.5,178 172.9,178 			"/>
			<path class="st5" d="M167.6,185.6l1.1-7.6H91.2l0.9,6.3C116.5,191.3,142.7,191.1,167.6,185.6z"/>
		</g>
	</g>
	<g>
		<rect x="212.7" y="181.6" class="st6" width="52.4" height="62.9"/>
		<rect x="212.7" y="181.6" class="st7" width="52.4" height="62.9"/>
		
			<linearGradient id="SVGID_00000175316199731718942900000012294217046570037147_" gradientUnits="userSpaceOnUse" x1="189.1228" y1="203.4112" x2="288.7571" y2="15.6187" gradientTransform="matrix(1 0 0 -1 0 229.8898)">
			<stop  offset="2.128803e-03" style="stop-color:#BFDCFD"/>
			<stop  offset="0.9978" style="stop-color:#669FE2"/>
		</linearGradient>
		
			<path style="fill:url(#SVGID_00000175316199731718942900000012294217046570037147_);stroke:#4B5877;stroke-width:3;stroke-linecap:round;stroke-linejoin:round;stroke-miterlimit:10;" d="
			M325.4,193.8h-173c-4.3,0-7.9-3.5-7.9-7.9V54.8c0-4.3,3.5-7.9,7.9-7.9h173c4.3,0,7.9,3.5,7.9,7.9v131.1
			C333.3,190.2,329.8,193.8,325.4,193.8z"/>
		<path class="st5" d="M144.6,167.6v18.4c0,4.3,3.5,7.9,7.9,7.9h173c4.3,0,7.9-3.5,7.9-7.9v-18.4"/>
		<rect x="153.8" y="56.2" class="st9" width="170.4" height="102.2"/>
		<polygon class="st10" points="212.4,56.2 178.4,158.4 188.6,158.4 228.6,56.2 		"/>
		<polygon class="st10" points="237.4,56.2 203.5,158.4 254.6,158.4 294.5,56.2 		"/>
	</g>
	<g>
		<g>
			<path class="st11" d="M354.9,112.9h-47.3v48.1c5.9,8.2,14.3,13.3,23.6,13.3s17.8-5.1,23.6-13.3V112.9z"/>
			
				<linearGradient id="SVGID_00000169541242437148672160000004320973532007067787_" gradientUnits="userSpaceOnUse" x1="188.8484" y1="86.0772" x2="336.5095" y2="-192.2369" gradientTransform="matrix(1 0 0 -1 0 229.8898)">
				<stop  offset="3.224206e-03" style="stop-color:#77C16B"/>
				<stop  offset="0.9978" style="stop-color:#5CA06B"/>
			</linearGradient>
			
				<path style="fill:url(#SVGID_00000169541242437148672160000004320973532007067787_);stroke:#4B5877;stroke-width:3;stroke-linecap:round;stroke-linejoin:round;stroke-miterlimit:10;" d="
				M321.1,151.8c-7.7,2-13.6,1.2-20.9,5c-11.1,5.8-22.8,12-29.2,20.9c-6.1,8.4-31.6,90.1-31.6,90.1l-83.9,9.3v45c0,0,91.7,0,177.9,0
				L321.1,151.8z"/>
			<path class="st13" d="M422.1,209.1c-0.2-0.8-0.4-1.6-0.5-2.4c-2.6-11.6-6.1-23.6-11.5-34.3c-1.5-2.8-3.1-5.7-5.4-8
				c-8.5-8.4-34.3-15.9-43.2-19.6c-6.9-2.8-7.1,2.7-14.4,4.1c-1.6,0.3-13.3,1.6-13.8,2.9c-0.1,0.2-8.5,15.6-13.1,45.7
				c-4.6,30.3-4.8,124.5-4.8,124.5c59.7,0,122.5,0,122.5,0c-0.2,0-6-52.4-6.6-57.2C428.6,246.2,426.1,227.4,422.1,209.1z"/>
			
				<linearGradient id="SVGID_00000045612478011167686130000008148981216846962343_" gradientUnits="userSpaceOnUse" x1="281.7271" y1="135.3546" x2="429.3882" y2="-142.9595" gradientTransform="matrix(1 0 0 -1 0 229.8898)">
				<stop  offset="3.224206e-03" style="stop-color:#77C16B"/>
				<stop  offset="0.9978" style="stop-color:#5CA06B"/>
			</linearGradient>
			
				<path style="fill:url(#SVGID_00000045612478011167686130000008148981216846962343_);stroke:#4B5877;stroke-width:3;stroke-linecap:round;stroke-linejoin:round;stroke-miterlimit:10;" d="
				M422.1,209.1c-0.2-0.8-0.4-1.6-0.5-2.4c-2.6-11.6-6.1-23.6-11.5-34.3c-1.5-2.8-3.1-5.7-5.4-8c-8.5-8.4-34.3-15.9-43.2-19.6
				c-6.9-2.8-7.1,2.7-14.4,4.1c-1.6,0.3-13.3,1.6-13.8,2.9c-0.1,0.2-8.5,15.6-13.1,45.7c-4.6,30.3-4.8,124.5-4.8,124.5
				c59.7,0,122.5,0,122.5,0c-0.2,0-6-52.4-6.6-57.2C428.6,246.2,426.1,227.4,422.1,209.1z"/>
			<path class="st5" d="M378.5,322.1c6.2,0,12.2,0,17.7,0l-18.2-104.6C377.5,252.2,378.9,287.2,378.5,322.1z"/>
			<path class="st3" d="M281.8,199.2c0,0-2,20.8-3,63.2s0,59.6,0,59.6"/>
			<line class="st3" x1="375.8" y1="204.4" x2="396.2" y2="322.1"/>
			
				<linearGradient id="SVGID_00000083086649153263941020000014054164866989909641_" gradientUnits="userSpaceOnUse" x1="279.0374" y1="133.9275" x2="426.6985" y2="-144.3866" gradientTransform="matrix(1 0 0 -1 0 229.8898)">
				<stop  offset="3.224206e-03" style="stop-color:#77C16B"/>
				<stop  offset="0.9978" style="stop-color:#5CA06B"/>
			</linearGradient>
			
				<path style="fill:url(#SVGID_00000083086649153263941020000014054164866989909641_);stroke:#4B5877;stroke-width:3;stroke-linecap:round;stroke-linejoin:round;stroke-miterlimit:10;" d="
				M321.1,151.8c0,0-4.6-1.3-9.1-4.6c-4.6-3.2-5.6-5.4-5.6-5.4l-7.5,14.6c0,0,0.6,3.2,6.3,7.5c5.7,4.3,10.9,6.3,10.9,6.3
				L321.1,151.8z"/>
			
				<linearGradient id="SVGID_00000128444358138230580840000009622397796923751824_" gradientUnits="userSpaceOnUse" x1="310.3409" y1="150.5357" x2="458.002" y2="-127.7784" gradientTransform="matrix(1 0 0 -1 0 229.8898)">
				<stop  offset="3.224206e-03" style="stop-color:#77C16B"/>
				<stop  offset="0.9978" style="stop-color:#5CA06B"/>
			</linearGradient>
			
				<path style="fill:url(#SVGID_00000128444358138230580840000009622397796923751824_);stroke:#4B5877;stroke-width:3;stroke-linecap:round;stroke-linejoin:round;stroke-miterlimit:10;" d="
				M333.3,151.8c0,0,6.5-2.9,11.1-6.1s11.1-10.5,11.1-10.5l10.8,11.5c0,0-7.2,10.8-13,15c-5.7,4.3-15,8.5-15,8.5L333.3,151.8z"/>
		</g>
		<g>
			<g>
				<g>
					<g class="st17">
						<path class="st18" d="M354,108.5h-52.5V153c6.5,7.6,15.9,12.3,26.3,12.3s19.7-4.7,26.3-12.3L354,108.5L354,108.5z"/>
						<path class="st19" d="M322.1,151.9c0,0,3.3,2.2,9.5,0.4"/>
						<path class="st20" d="M303.6,122.1v12.5c6.3,7.7,14.1,14.1,24.1,14.1c10,0,17.8-6.3,24.1-14v-12.6L303.6,122.1L303.6,122.1z"
							/>
					</g>
					<path class="st21" d="M372.9,47.6c-0.8-5-2.8-8.3-5.4-12.7c-1.9-3.1-2.7-5.1-5.7-6.3c-2.4-1-6.6-3.5-6.8-3.6
						c-2.3-1.5-3.6-2.3-4.8-4.4c-3.9-6.8-14.5-6.4-21.3-6.4c-2.3,0-4.6-0.7-6.9-0.8c-4.8-0.2-9.6,2.6-14.3,3.9
						c-2.3,0.7-4.6,1.5-6.8,2.4c-0.8,0.3-5.1,3.5-5.4,3.3c0,0,3.4-0.1,5.6,1.6c-0.8,0.4-1.5,0.8-2.3,1.2c-0.7,0.4-1.4,0.8-2.1,1.3
						c-5.4,3.9-8.8,7.7-11.6,13.5c-2,4.3-5.8,12.2-5.8,17c0,2.1,3.7-2.4,3.7-0.5c0,1.2-0.6,3.5-1.2,5.6c-0.8,2.8-0.9,5.8-0.5,8.7
						c0.6,4.1,1.6,9.4,2.7,9.4l43.6-0.2h0h0c0,0,43.6-0.2,43.6-0.2c2.4-3.9,3.2-8.7,2.8-13.2c-0.2-1.9-0.5-3.8-1.1-5.5
						c-0.4-1.2-0.9-3.7-0.9-3.7s1.8,0.6,3.4,1.5C375.7,57.6,373.2,49.8,372.9,47.6z"/>
					<g>
						<g>
							<g>
								<path class="st11" d="M356.9,100.2l5.1,1.6c4.3,1.3,8.6-1.4,9.5-6.2l1.9-9.7c0.9-4.7-1.9-11.9-6.1-10.9
									c-2.2,0.5-6.7,6.2-6.7,6.2L356.9,100.2z"/>
							</g>
							<line class="st3" x1="369.2" y1="80.2" x2="365.3" y2="87.2"/>
						</g>
						<g>
							<g>
								<path class="st11" d="M297.7,100.2l-5.1,1.6c-4.3,1.3-8.6-1.4-9.5-6.2l-1.9-9.7c-0.9-4.7,1.9-11.9,6.1-10.9
									c2.2,0.5,6.7,6.2,6.7,6.2L297.7,100.2z"/>
							</g>
							<line class="st3" x1="285.5" y1="80.2" x2="289.3" y2="87.2"/>
						</g>
						<path class="st11" d="M365.7,72.2c-0.2-4.5-0.3-8.9-1.1-13.3c-0.3-1.8-0.6-3.7-1-5.6c-0.5-2.2-1.1-4.5-2-6.5
							c-3-6.3-9.6-11.1-17-11.1c-0.4,0-0.7,0-1.1,0c-2.8,5.8-9.2,7.2-15.9,7.2c-6.6,0-13-1.4-15.9-7.2c-0.4,0-0.7,0-1.1,0
							c-7.3,0-13.9,4.8-17,11.1c-0.9,2-1.6,4.2-2,6.5c-0.4,1.9-0.7,3.8-1,5.6c-0.8,4.4-0.9,8.8-1.1,13.3c-0.4,9.6,1.1,20.3,1.9,25.2
							c0.4,2.7,1.1,6.5,1.7,9.1c1.2,5.2,2,9.2,5,13.7c0.2,0.3,0.5,0.6,0.7,0.9c0.1,0.1,0.2,0.2,0.2,0.3c0.2,0.2,0.3,0.4,0.5,0.6
							c0.1,0.1,0.2,0.2,0.3,0.3c0.1,0.2,0.3,0.3,0.5,0.5c0.1,0.1,0.2,0.2,0.3,0.4c0.1,0.2,0.3,0.3,0.5,0.5c0.1,0.1,0.2,0.3,0.4,0.4
							c0.1,0.2,0.3,0.3,0.5,0.5c0.1,0.1,0.2,0.3,0.4,0.4c0.2,0.2,0.3,0.3,0.5,0.5c0.1,0.1,0.3,0.3,0.4,0.4c0.2,0.2,0.3,0.3,0.5,0.5
							c0.1,0.1,0.3,0.3,0.4,0.4c0.2,0.2,0.3,0.3,0.5,0.5c0.1,0.1,0.3,0.3,0.4,0.4c0.2,0.2,0.3,0.3,0.5,0.5c0.1,0.1,0.3,0.3,0.4,0.4
							c0.2,0.1,0.3,0.3,0.5,0.4c0.1,0.1,0.3,0.3,0.5,0.4c0.2,0.1,0.3,0.3,0.5,0.4c0.1,0.1,0.3,0.3,0.5,0.4c0.2,0.1,0.3,0.3,0.5,0.4
							c0.1,0.1,0.3,0.2,0.5,0.4c0.2,0.1,0.3,0.3,0.5,0.4c0.2,0.1,0.3,0.2,0.5,0.4c0.2,0.1,0.3,0.3,0.5,0.4c0.2,0.1,0.3,0.2,0.5,0.4
							c0.2,0.1,0.4,0.3,0.5,0.4c0.2,0.1,0.3,0.2,0.5,0.4c0.2,0.1,0.4,0.2,0.5,0.4c0,0,0.1,0.1,0.1,0.1c0.8,0.6,1.5,1.1,2.1,1.6
							c3,2.6,6.8,4.2,10.8,4.5c0.2,0,0.4,0,0.6,0c0.3,0,0.5,0,0.8,0c0.1,0,0.1,0,0.2,0c0,0,0,0,0,0c0.2,0,0.4,0,0.7,0
							c0.2,0,0.4,0,0.7,0c0,0,0,0,0,0c0.1,0,0.1,0,0.2,0c0.2,0,0.5,0,0.8,0c0.2,0,0.4,0,0.6,0c4-0.3,7.7-1.9,10.8-4.5
							c0.6-0.5,1.3-1.1,2.1-1.6c0,0,0.1-0.1,0.1-0.1c0.2-0.1,0.4-0.2,0.5-0.4c0.2-0.1,0.3-0.2,0.5-0.4c0.2-0.1,0.4-0.3,0.5-0.4
							c0.2-0.1,0.3-0.2,0.5-0.4c0.2-0.1,0.4-0.3,0.5-0.4c0.2-0.1,0.3-0.2,0.5-0.4c0.2-0.1,0.3-0.3,0.5-0.4c0.2-0.1,0.3-0.2,0.5-0.4
							c0.2-0.1,0.3-0.3,0.5-0.4c0.1-0.1,0.3-0.3,0.5-0.4c0.2-0.1,0.3-0.3,0.5-0.4c0.1-0.1,0.3-0.3,0.5-0.4c0.2-0.1,0.3-0.3,0.5-0.4
							c0.1-0.1,0.3-0.3,0.4-0.4c0.2-0.1,0.3-0.3,0.5-0.5c0.1-0.1,0.3-0.3,0.4-0.4c0.2-0.2,0.3-0.3,0.5-0.5c0.1-0.1,0.3-0.3,0.4-0.4
							c0.2-0.2,0.3-0.3,0.5-0.5c0.1-0.1,0.3-0.3,0.4-0.4c0.2-0.2,0.3-0.3,0.5-0.5c0.1-0.1,0.2-0.3,0.4-0.4c0.2-0.2,0.3-0.3,0.5-0.5
							c0.1-0.1,0.2-0.3,0.4-0.4c0.2-0.2,0.3-0.3,0.5-0.5c0.1-0.1,0.2-0.2,0.3-0.4c0.1-0.2,0.3-0.3,0.5-0.5c0.1-0.1,0.2-0.2,0.3-0.3
							c0.2-0.2,0.3-0.4,0.5-0.6c0.1-0.1,0.2-0.2,0.2-0.3c0.2-0.3,0.5-0.6,0.7-0.9c3-4.5,3.9-8.5,5-13.7c0.6-2.6,1.3-6.5,1.7-9.1
							C364.6,92.5,366.1,81.8,365.7,72.2z"/>
					</g>
					<path class="st3" d="M321.2,101.6c0,0,1.5,2.5,6.5,2.5s6.5-2.5,6.5-2.5"/>
					<ellipse class="st22" cx="328.1" cy="126.6" rx="9" ry="1.9"/>
					<g>
						<ellipse class="st23" cx="309.9" cy="77.9" rx="9.3" ry="3.4"/>
						<ellipse class="st23" cx="345.5" cy="77.9" rx="9.3" ry="3.4"/>
						<path class="st3" d="M315.6,82.9c0-1.4-2.5-2.6-5.7-2.6c-3.1,0-5.7,1.2-5.7,2.6"/>
						<path class="st3" d="M339.8,82.9c0-1.4,2.5-2.6,5.7-2.6c3.1,0,5.7,1.2,5.7,2.6"/>
						<g>
							<path class="st3" d="M353.1,93l-14.4,0.1c-3,0-5.5-2.2-5.8-5.1l-1-10c-0.2-2.1,1.5-3.9,3.6-3.9l20.5-0.1
								c2.1,0,3.8,1.8,3.6,3.9l-0.9,10C358.5,90.8,356.1,93,353.1,93z"/>
						</g>
						<g>
							<path class="st3" d="M316.9,93l-14.4,0.1c-3,0-5.5-2.2-5.8-5.1l-1-10c-0.2-2.1,1.5-3.9,3.6-3.9l20.5-0.1
								c2.1,0,3.8,1.8,3.6,3.9l-0.9,10C322.3,90.8,319.8,93,316.9,93z"/>
						</g>
						<g>
							<g>
								<path class="st3" d="M316.3,69.8c0,0-6.7-1.7-11.1-1.2c-2.5,0.2-6.4,1-6.4,1"/>
							</g>
							<g>
								<path class="st3" d="M339.1,69.8c0,0,6.7-1.7,11.1-1.2c2.5,0.2,6.4,1,6.4,1"/>
							</g>
						</g>
						<g>
							<line class="st3" x1="290.3" y1="80.4" x2="295.4" y2="80.4"/>
							<line class="st3" x1="360" y1="80.4" x2="365.1" y2="80.4"/>
							<line class="st3" x1="324.3" y1="80.4" x2="331.1" y2="80.4"/>
						</g>
					</g>
					<g>
						<ellipse class="st23" cx="327.7" cy="96.3" rx="5.6" ry="1.2"/>
					</g>
					<path class="st24" d="M362.1,112.8c-0.2,0-0.4,0-0.6,0c-0.6,0-1.2-0.1-1.9-0.3c-0.1,0.2-0.2,0.3-0.4,0.5
						c-1.6,2.4-3.6,5.7-5.9,5.6c-0.2,0-0.3,0-0.5-0.1c-2.9-0.8-2.6-7.1-4.5-9c-2.5-2.5-5.3-4.5-7.7-4.9c-1.9-0.3-3.8-0.6-5.7-0.6
						l0,0l0,0c-1.9,0-3.8,0.2-5.8,0.8c-0.4,0.2-0.9,0.3-1.3,0.4c-0.1,0-0.1,0-0.2-0.1c-0.1,0-0.1,0-0.2,0.1
						c-0.5-0.1-0.9-0.2-1.3-0.4c-2-0.5-3.9-0.8-5.8-0.8l0,0l0,0c-1.9,0-3.8,0.3-5.7,0.6c-2.4,0.4-5.2,2.4-7.7,4.9
						c-1.9,1.9-1.6,8.2-4.5,9c-0.2,0-0.3,0.1-0.5,0.1c-2.3,0.1-4.3-3.2-5.9-5.6c-0.1-0.2-0.2-0.3-0.4-0.5c-0.7,0.2-1.3,0.3-1.9,0.3
						c-0.2,0-0.4,0-0.6,0c0.5,1.5,1.2,2.9,1.9,4.3c0.9,1.8,20.3,19.8,21.2,19.9c0.1,0,0.3,0.1,0.4,0.2c0.1,0,0.1,0.1,0.2,0.1
						s0.1,0.1,0.2,0.1c0.1,0.1,0.3,0.2,0.5,0.3c2.2,0.8,4.3,1.3,6.6,1.3l0,0l0,0c0.6,0,1.3,0,1.9-0.1c0.2,0,0.4-0.1,0.6-0.1
						c0.1,0,0.1,0,0.2,0c0.1,0,0.1,0,0.2,0c0.1,0,0.3,0.1,0.4,0.1l0,0l0,0c0.1,0,0.3,0,0.4-0.1c0.1,0,0.1,0,0.2,0c0.1,0,0.1,0,0.2,0
						c0.2,0.1,0.4,0.1,0.6,0.1c0.7,0.1,1.3,0.1,1.9,0.1l0,0l0,0c2.3-0.1,4.4-0.5,6.6-1.3c0.2-0.1,0.4-0.2,0.5-0.3
						c0.1-0.1,0.1-0.1,0.2-0.1c0-0.1,0.1-0.1,0.2-0.1c0.1-0.1,0.2-0.1,0.4-0.2c0.9-0.2,20.3-18.1,21.2-19.9
						C360.9,115.7,361.6,114.2,362.1,112.8z M327.7,123.4c-3.6-0.1-7.2,0-10.7,0.5c-1.1-0.1-2.3-0.3-3.4-0.6c-6-1.8-5.9-9-2.2-12.1
						c0.4-0.2,0.8-0.3,1.2-0.4c1.6-0.2,3.3-0.5,4.9-0.6c3.1,0.8,6.9-0.1,10.2-0.4c3.3,0.3,7.1,1.1,10.2,0.4c1.6,0.2,3.3,0.4,4.9,0.6
						c0.4,0.1,0.8,0.2,1.2,0.4c3.6,3.1,3.8,10.3-2.2,12.1c-1.1,0.3-2.3,0.5-3.4,0.6C334.9,123.4,331.3,123.3,327.7,123.4z"/>
					<path class="st3" d="M365.7,72.2c-0.2-4.5-0.3-8.9-1.1-13.3c-0.3-1.8-0.6-3.7-1-5.6c-0.5-2.2-1.1-4.5-2-6.5
						c-3-6.3-9.6-11.1-17-11.1c-0.4,0-0.7,0-1.1,0c-2.8,5.8-9.2,7.2-15.9,7.2c-6.6,0-13-1.4-15.9-7.2c-0.4,0-0.7,0-1.1,0
						c-7.3,0-13.9,4.8-17,11.1c-0.9,2-1.6,4.2-2,6.5c-0.4,1.9-0.7,3.8-1,5.6c-0.8,4.4-0.9,8.8-1.1,13.3c-0.4,9.6,1.1,20.3,1.9,25.2
						c0.4,2.7,1.1,6.5,1.7,9.1c1.2,5.2,2,9.2,5,13.7c0.2,0.3,0.5,0.6,0.7,0.9c0.1,0.1,0.2,0.2,0.2,0.3c0.2,0.2,0.3,0.4,0.5,0.6
						c0.1,0.1,0.2,0.2,0.3,0.3c0.1,0.2,0.3,0.3,0.5,0.5c0.1,0.1,0.2,0.2,0.3,0.4c0.1,0.2,0.3,0.3,0.5,0.5c0.1,0.1,0.2,0.3,0.4,0.4
						c0.1,0.2,0.3,0.3,0.5,0.5c0.1,0.1,0.2,0.3,0.4,0.4c0.2,0.2,0.3,0.3,0.5,0.5c0.1,0.1,0.3,0.3,0.4,0.4c0.2,0.2,0.3,0.3,0.5,0.5
						c0.1,0.1,0.3,0.3,0.4,0.4c0.2,0.2,0.3,0.3,0.5,0.5c0.1,0.1,0.3,0.3,0.4,0.4c0.2,0.2,0.3,0.3,0.5,0.5c0.1,0.1,0.3,0.3,0.4,0.4
						c0.2,0.1,0.3,0.3,0.5,0.4c0.1,0.1,0.3,0.3,0.5,0.4c0.2,0.1,0.3,0.3,0.5,0.4c0.1,0.1,0.3,0.3,0.5,0.4c0.2,0.1,0.3,0.3,0.5,0.4
						c0.1,0.1,0.3,0.2,0.5,0.4c0.2,0.1,0.3,0.3,0.5,0.4c0.2,0.1,0.3,0.2,0.5,0.4c0.2,0.1,0.3,0.3,0.5,0.4c0.2,0.1,0.3,0.2,0.5,0.4
						c0.2,0.1,0.4,0.3,0.5,0.4c0.2,0.1,0.3,0.2,0.5,0.4c0.2,0.1,0.4,0.2,0.5,0.4c0,0,0.1,0.1,0.1,0.1c0.8,0.6,1.5,1.1,2.1,1.6
						c3,2.6,6.8,4.2,10.8,4.5c0.2,0,0.4,0,0.6,0c0.3,0,0.5,0,0.8,0c0.1,0,0.1,0,0.2,0c0,0,0,0,0,0c0.2,0,0.4,0,0.7,0
						c0.2,0,0.4,0,0.7,0c0,0,0,0,0,0c0.1,0,0.1,0,0.2,0c0.2,0,0.5,0,0.8,0c0.2,0,0.4,0,0.6,0c4-0.3,7.7-1.9,10.8-4.5
						c0.6-0.5,1.3-1.1,2.1-1.6c0,0,0.1-0.1,0.1-0.1c0.2-0.1,0.4-0.2,0.5-0.4c0.2-0.1,0.3-0.2,0.5-0.4c0.2-0.1,0.4-0.3,0.5-0.4
						c0.2-0.1,0.3-0.2,0.5-0.4c0.2-0.1,0.4-0.3,0.5-0.4c0.2-0.1,0.3-0.2,0.5-0.4c0.2-0.1,0.3-0.3,0.5-0.4c0.2-0.1,0.3-0.2,0.5-0.4
						c0.2-0.1,0.3-0.3,0.5-0.4c0.1-0.1,0.3-0.3,0.5-0.4c0.2-0.1,0.3-0.3,0.5-0.4c0.1-0.1,0.3-0.3,0.5-0.4c0.2-0.1,0.3-0.3,0.5-0.4
						c0.1-0.1,0.3-0.3,0.4-0.4c0.2-0.1,0.3-0.3,0.5-0.5c0.1-0.1,0.3-0.3,0.4-0.4c0.2-0.2,0.3-0.3,0.5-0.5c0.1-0.1,0.3-0.3,0.4-0.4
						c0.2-0.2,0.3-0.3,0.5-0.5c0.1-0.1,0.3-0.3,0.4-0.4c0.2-0.2,0.3-0.3,0.5-0.5c0.1-0.1,0.2-0.3,0.4-0.4c0.2-0.2,0.3-0.3,0.5-0.5
						c0.1-0.1,0.2-0.3,0.4-0.4c0.2-0.2,0.3-0.3,0.5-0.5c0.1-0.1,0.2-0.2,0.3-0.4c0.1-0.2,0.3-0.3,0.5-0.5c0.1-0.1,0.2-0.2,0.3-0.3
						c0.2-0.2,0.3-0.4,0.5-0.6c0.1-0.1,0.2-0.2,0.2-0.3c0.2-0.3,0.5-0.6,0.7-0.9c3-4.5,3.9-8.5,5-13.7c0.6-2.6,1.3-6.5,1.7-9.1
						C364.6,92.5,366.1,81.8,365.7,72.2z"/>
					<path class="st25" d="M311.7,111.3c0,0,4.1,8.3,16,8.3s16-8.3,16-8.3s-5.1-0.1-16-0.1C316.8,111.2,311.7,111.3,311.7,111.3z"/>
				</g>
			</g>
		</g>
	</g>
	<g>
		<path class="st25" d="M70.9,188L70.9,188c0,5-4.1,9-9,9l0,0c5,0,9,4.1,9,9l0,0c0-5,4.1-9,9-9l0,0C75,197.1,70.9,193,70.9,188z"/>
		<path class="st25" d="M184.9,73L184.9,73c0,5-4.1,9-9,9l0,0c5,0,9,4.1,9,9l0,0c0-5,4.1-9,9-9l0,0C189,82.1,184.9,78,184.9,73z"/>
	</g>
</g>
<rect x="-231.9" y="229" class="st26" width="952.5" height="345.9"/>
</svg>
