<?xml version="1.0" encoding="utf-8"?>
<svg viewBox="0 0 452 229" width="452" height="229" xmlns="http://www.w3.org/2000/svg">
    <defs>
        <linearGradient id="linear-gradient" x1="111.62" y1="65.4" x2="227.42" y2="-252.29"
                        gradientTransform="translate(0 .89) scale(1 -1)" gradientUnits="userSpaceOnUse">
            <stop offset="0" stop-color="#cae062"/>
            <stop offset="1" stop-color="#5ca06b"/>
        </linearGradient>
        <linearGradient id="linear-gradient-2" x1="53.7" y1="44.28" x2="169.5" y2="-273.4"
                        gradientTransform="translate(0 .89) scale(1 -1)" gradientUnits="userSpaceOnUse">
            <stop offset="0" stop-color="#cae062"/>
            <stop offset="1" stop-color="#5ca06b"/>
        </linearGradient>
        <linearGradient id="linear-gradient-3" x1="4.14" y1="26.22" x2="119.94" y2="-291.46"
                        gradientTransform="translate(0 .89) scale(1 -1)" gradientUnits="userSpaceOnUse">
            <stop offset="0" stop-color="#cae062"/>
            <stop offset="1" stop-color="#5ca06b"/>
        </linearGradient>
        <linearGradient id="linear-gradient-4" x1="189.12" y1="-25.59" x2="288.76" y2="-213.38"
                        gradientTransform="translate(0 .89) scale(1 -1)" gradientUnits="userSpaceOnUse">
            <stop offset="0" stop-color="#bfdcfd"/>
            <stop offset="1" stop-color="#669fe2"/>
        </linearGradient>
        <linearGradient id="linear-gradient-5" x1="188.85" y1="-142.92" x2="336.51" y2="-421.24"
                        gradientTransform="translate(0 .89) scale(1 -1)" gradientUnits="userSpaceOnUse">
            <stop offset="0" stop-color="#77c16b"/>
            <stop offset="1" stop-color="#5ca06b"/>
        </linearGradient>
        <linearGradient id="linear-gradient-6" x1="281.73" y1="-93.65" x2="429.39" y2="-371.96"
                        gradientTransform="translate(0 .89) scale(1 -1)" gradientUnits="userSpaceOnUse">
            <stop offset="0" stop-color="#77c16b"/>
            <stop offset="1" stop-color="#5ca06b"/>
        </linearGradient>
        <linearGradient id="linear-gradient-7" x1="279.04" y1="-95.07" x2="426.7" y2="-373.39"
                        gradientTransform="translate(0 .89) scale(1 -1)" gradientUnits="userSpaceOnUse">
            <stop offset="0" stop-color="#77c16b"/>
            <stop offset="1" stop-color="#5ca06b"/>
        </linearGradient>
        <linearGradient id="linear-gradient-8" x1="310.34" y1="-78.46" x2="458" y2="-356.78"
                        gradientTransform="translate(0 .89) scale(1 -1)" gradientUnits="userSpaceOnUse">
            <stop offset="0" stop-color="#77c16b"/>
            <stop offset="1" stop-color="#5ca06b"/>
        </linearGradient>
    </defs>
    <g transform="matrix(1, 0, 0, 1, 39.51385498046878, 11.999999999999986)">
        <g transform="matrix(1, 0, 0, 0.999957, -34.877792, -13.446113)">
            <g>
                <path class="cls-1"
                      d="m134.43,134.49s-10.62-18.73-4.21-31.45c6.41-12.72,14.88-13.92,16.7-19.17,1.81-5.25.7-22.78,6.58-29.26,5.88-6.48,12.35-1.99,15.63-4.65,3.27-2.65,14.38-22.47,26.52-14.64,12.14,7.83-1.79,17.63-1.65,19.56s14.53,10.16,1.12,19.3c-13.43,9.14-30.89,60.26-60.69,60.31Z"
                      style="fill: url('#linear-gradient'); stroke: rgb(75, 88, 119); stroke-linecap: round; stroke-linejoin: round; stroke-width: 3px;"/>
                <path class="cls-12"
                      d="m117.12,119.1s8.76-33.45,6.86-40.37c0,0-.73-6.75-5.28-9.78s-7.08-3.2-7.93-5.23c-.84-2.02,1.86-21.32-3.71-24.49-5.57-3.17-10.12,2.06-12.14,1.55-2.02-.51-21.25-30.86-33.39-17.2s12.31,25.97,10.12,27.66c-2.19,1.69-13.23,10.53,2.01,18.33,14.98,7.67,17.53,7.04,16.36,9.31-2.65,5.12-9.44,13.85,3.55,24.64s23.55,15.58,23.55,15.58Z"
                      style="fill: url('#linear-gradient-2'); stroke: rgb(75, 88, 119); stroke-linecap: round; stroke-linejoin: round; stroke-width: 3px;"/>
                <path class="cls-10"
                      d="m101.99,128.98c.33-.29-4.32-4.55-4.77-5.06-4.58-5.1-11.7-7.53-18.46-6.81-6.31.67-10.34,5.13-15.98,7.27-2.26.86-16.71-1.32-19.89,7.93s2.7,9.82,1.22,14.12c-1.48,4.29-8.8,12.24-9.2,20.49-.4,8.26,2.94,17.67,9.21,18.22,9.21.81,12.96-16.13,14.03-19.16.75-2.11,1.39-4.58,3.96-3.61,4.84,1.82,9.81-2.97,12.32-8.27,3.69-7.79.96-15.13,4.09-16.43,2.26-.94,7.06,1.49,12.59-.75,2.81-1.14,10.88-7.94,10.88-7.94Z"
                      style="fill: url('#linear-gradient-3'); stroke: rgb(75, 88, 119); stroke-linecap: round; stroke-linejoin: round; stroke-width: 3px;"/>
                <path class="cls-2" d="m80,42.9s16.86,11.73,29.81,51.8c12.95,40.07,14.17,56.42,14.17,56.42"
                      style="fill: none; stroke: rgb(75, 88, 119); stroke-linecap: round; stroke-linejoin: round; stroke-width: 3px;"/>
                <path class="cls-2"
                      d="m56.56,150.78s10.41-28.24,31.68-27.16c7.97.4,14.21,4.88,18.89,10.32,7.8,9.07,11.28,20.8,11.28,20.8"
                      style="fill: none; stroke: rgb(75, 88, 119); stroke-linecap: round; stroke-linejoin: round; stroke-width: 3px;"/>
                <path class="cls-2"
                      d="m128.97,161.06c2.9-21.71,9.36-43.03,19.83-61.71,8.73-15.58,21.1-35.37,35.8-44.09.1-.06.22-.11.32-.16"
                      style="fill: none; stroke: rgb(75, 88, 119); stroke-linecap: round; stroke-linejoin: round; stroke-width: 3px;"/>
            </g>
            <g>
                <polygon class="cls-9" points="178.52 178.02 87.88 178.02 85.34 151.49 180.56 151.49 178.52 178.02"
                         style="fill: rgb(247, 143, 92); stroke: rgb(75, 88, 119); stroke-linecap: round; stroke-linejoin: round; stroke-width: 3px;"/>
                <polygon class="cls-9" points="163.76 240.38 102.65 240.38 93.48 178.02 172.92 178.02 163.76 240.38"
                         style="fill: rgb(247, 143, 92); stroke: rgb(75, 88, 119); stroke-linecap: round; stroke-linejoin: round; stroke-width: 3px;"/>
                <path class="cls-18" d="m167.62,185.6l1.09-7.58h-77.52l.91,6.32c24.43,6.98,50.6,6.73,75.52,1.26Z"
                      style="fill: rgb(75, 88, 119); isolation: isolate; opacity: 0.2; stroke-width: 0px;"/>
            </g>
        </g>
        <g transform="matrix(1, 0, 0, 0.999957, -34.877792, -13.446113)">
            <rect class="cls-6" x="212.72" y="181.62" width="52.43" height="62.91"
                  style="fill: rgb(102, 159, 226); stroke: rgb(75, 88, 119); stroke-linecap: round; stroke-linejoin: round; stroke-width: 3px;"/>
            <rect class="cls-20" x="212.72" y="181.62" width="52.43" height="62.91"
                  style="fill: rgb(75, 88, 119); isolation: isolate; opacity: 0.3; stroke-width: 0px;"/>
            <path class="cls-11"
                  d="m325.44,193.77h-173c-4.34,0-7.86-3.52-7.86-7.86V54.84c0-4.34,3.52-7.86,7.86-7.86h173c4.34,0,7.86,3.52,7.86,7.86v131.06c0,4.35-3.52,7.87-7.86,7.87Z"
                  style="fill: url('#linear-gradient-4'); stroke: rgb(75, 88, 119); stroke-linecap: round; stroke-linejoin: round; stroke-width: 3px;"/>
            <path class="cls-18"
                  d="m144.57,167.56v18.35c0,4.34,3.52,7.86,7.86,7.86h173c4.34,0,7.86-3.52,7.86-7.86v-18.35"
                  style="fill: rgb(75, 88, 119); isolation: isolate; opacity: 0.2; stroke-width: 0px;"/>
            <rect class="cls-5" x="153.75" y="56.15" width="170.38" height="102.23"
                  style="fill: rgb(173, 204, 246); stroke: rgb(75, 88, 119); stroke-linecap: round; stroke-linejoin: round; stroke-width: 3px;"/>
            <polygon class="cls-19" points="212.36 56.15 178.39 158.38 188.64 158.38 228.58 56.15 212.36 56.15"
                     style="fill: rgb(255, 255, 255); isolation: isolate; opacity: 0.2; stroke-width: 0px;"/>
            <polygon class="cls-19" points="237.45 56.15 203.48 158.38 254.6 158.38 294.54 56.15 237.45 56.15"
                     style="fill: rgb(255, 255, 255); isolation: isolate; opacity: 0.2; stroke-width: 0px;"/>
        </g>
        <g transform="matrix(1, 0, 0, 0.999957, -34.877792, -13.446113)">
            <g>
                <path class="cls-7"
                      d="m354.9,112.95h-47.26v48.14c5.88,8.18,14.29,13.3,23.63,13.3s17.75-5.13,23.63-13.3v-48.14Z"
                      style="fill: rgb(246, 216, 178); stroke: rgb(75, 88, 119); stroke-linecap: round; stroke-linejoin: round; stroke-width: 3px;"/>
                <path class="cls-15"
                      d="m321.08,151.81c-7.66,2.01-13.64,1.2-20.91,4.97-11.08,5.76-22.75,12.03-29.17,20.89-6.1,8.42-31.64,90.05-31.64,90.05l-83.93,9.29v45.05h177.87l-12.22-170.25Z"
                      style="fill: url('#linear-gradient-5'); stroke: rgb(75, 88, 119); stroke-linecap: round; stroke-linejoin: round; stroke-width: 3px;"/>
                <path class="cls-4"
                      d="m422.14,209.05c-.17-.8-.35-1.59-.52-2.38-2.59-11.62-6.08-23.65-11.52-34.27-1.45-2.83-3.08-5.7-5.36-7.96-8.52-8.43-34.26-15.91-43.23-19.57-6.85-2.8-7.12,2.69-14.37,4.06-1.65.31-13.31,1.63-13.83,2.88-.07.17-8.55,15.56-13.13,45.74-4.6,30.29-4.81,124.51-4.81,124.51h122.48c-.18,0-5.97-52.41-6.65-57.25-2.64-18.56-5.11-37.41-9.06-55.76Z"
                      style="fill: rgb(92, 160, 107); stroke: rgb(75, 88, 119); stroke-linecap: round; stroke-linejoin: round; stroke-width: 3px;"/>
                <path class="cls-14"
                      d="m422.14,209.05c-.17-.8-.35-1.59-.52-2.38-2.59-11.62-6.08-23.65-11.52-34.27-1.45-2.83-3.08-5.7-5.36-7.96-8.52-8.43-34.26-15.91-43.23-19.57-6.85-2.8-7.12,2.69-14.37,4.06-1.65.31-13.31,1.63-13.83,2.88-.07.17-8.55,15.56-13.13,45.74-4.6,30.29-4.81,124.51-4.81,124.51h122.48c-.18,0-5.97-52.41-6.65-57.25-2.64-18.56-5.11-37.41-9.06-55.76Z"
                      style="fill: url('#linear-gradient-6'); stroke: rgb(75, 88, 119); stroke-linecap: round; stroke-linejoin: round; stroke-width: 3px;"/>
                <path class="cls-18" d="m378.51,322.06h17.71l-18.16-104.59c-.53,34.74.8,69.75.45,104.59Z"
                      style="fill: rgb(75, 88, 119); isolation: isolate; opacity: 0.2; stroke-width: 0px;"/>
                <path class="cls-2" d="m281.78,199.23s-2.05,20.75-2.99,63.23c-.94,42.48,0,59.6,0,59.6"
                      style="fill: none; stroke: rgb(75, 88, 119); stroke-linecap: round; stroke-linejoin: round; stroke-width: 3px;"/>
                <line class="cls-2" x1="375.79" y1="204.41" x2="396.22" y2="322.06"
                      style="fill: none; stroke: rgb(75, 88, 119); stroke-linecap: round; stroke-linejoin: round; stroke-width: 3px;"/>
                <path class="cls-16"
                      d="m321.08,151.81s-4.56-1.32-9.13-4.56c-4.56-3.24-5.59-5.45-5.59-5.45l-7.51,14.57s.59,3.24,6.33,7.51c5.74,4.27,10.89,6.33,10.89,6.33l5.01-18.4Z"
                      style="fill: url('#linear-gradient-7'); stroke: rgb(75, 88, 119); stroke-linecap: round; stroke-linejoin: round; stroke-width: 3px;"/>
                <path class="cls-13"
                      d="m333.3,151.81s6.54-2.86,11.1-6.1,11.13-10.54,11.13-10.54l10.75,11.48s-7.21,10.75-12.95,15.02c-5.74,4.27-15.02,8.54-15.02,8.54l-5.01-18.4Z"
                      style="fill: url('#linear-gradient-8'); stroke: rgb(75, 88, 119); stroke-linecap: round; stroke-linejoin: round; stroke-width: 3px;"/>
            </g>
            <g>
                <path class="cls-3"
                      d="m372.85,47.63c-.79-4.99-2.75-8.33-5.44-12.67-1.9-3.07-2.73-5.12-5.68-6.34-2.36-.98-6.65-3.46-6.81-3.57-2.31-1.54-3.62-2.32-4.82-4.39-3.92-6.79-14.46-6.38-21.33-6.42-2.34-.01-4.57-.67-6.86-.78-4.82-.23-9.65,2.58-14.26,3.93-2.32.68-4.59,1.5-6.81,2.43-.76.32-5.11,3.45-5.43,3.28,0,0,3.39-.11,5.6,1.56-.76.44-1.54.82-2.33,1.23-.69.36-1.39.76-2.07,1.26-5.4,3.92-8.78,7.66-11.58,13.53-2.05,4.29-5.82,12.2-5.82,17.01,0,2.06,3.7-2.43,3.66-.48-.02,1.16-.6,3.55-1.17,5.64-.77,2.83-.94,5.8-.52,8.71.6,4.13,1.59,9.44,2.68,9.43l43.62-.22h.04s43.62-.25,43.63-.25c2.39-3.94,3.17-8.66,2.8-13.18-.16-1.91-.52-3.78-1.06-5.53-.35-1.15-.88-3.67-.88-3.67,0,0,1.76.63,3.41,1.55.25-2.1-2.23-9.92-2.57-12.06Z"
                      style="fill: rgb(148, 141, 102); stroke: rgb(75, 88, 119); stroke-linecap: round; stroke-linejoin: round; stroke-width: 3px;"/>
                <g>
                    <g>
                        <path class="cls-7"
                              d="m356.92,100.18l5.14,1.57c4.31,1.32,8.56-1.45,9.49-6.18l1.91-9.67c.93-4.73-1.85-11.92-6.11-10.94-2.16.49-6.67,6.2-6.67,6.2l-3.76,19.02Z"
                              style="fill: rgb(246, 216, 178); stroke: rgb(75, 88, 119); stroke-linecap: round; stroke-linejoin: round; stroke-width: 3px;"/>
                        <line class="cls-2" x1="369.2" y1="80.25" x2="365.34" y2="87.25"
                              style="fill: none; stroke: rgb(75, 88, 119); stroke-linecap: round; stroke-linejoin: round; stroke-width: 3px;"/>
                    </g>
                    <g>
                        <path class="cls-7"
                              d="m297.73,100.18l-5.14,1.57c-4.31,1.32-8.56-1.45-9.49-6.18l-1.91-9.67c-.93-4.73,1.85-11.92,6.11-10.94,2.16.49,6.67,6.2,6.67,6.2l3.76,19.02Z"
                              style="fill: rgb(246, 216, 178); stroke: rgb(75, 88, 119); stroke-linecap: round; stroke-linejoin: round; stroke-width: 3px;"/>
                        <line class="cls-2" x1="285.45" y1="80.25" x2="289.32" y2="87.25"
                              style="fill: none; stroke: rgb(75, 88, 119); stroke-linecap: round; stroke-linejoin: round; stroke-width: 3px;"/>
                    </g>
                    <path class="cls-7"
                          d="m365.7,72.2c-.18-4.46-.34-8.91-1.09-13.3-.31-1.81-.6-3.71-1-5.6-.47-2.24-1.08-4.46-2.03-6.45-3.01-6.34-9.65-11.09-16.95-11.09-.36,0-.73,0-1.09,0-2.84,5.78-9.23,7.18-15.86,7.2-6.62-.02-13.02-1.42-15.86-7.2-.36,0-.73,0-1.09,0-7.29,0-13.94,4.75-16.95,11.09-.94,1.99-1.56,4.21-2.03,6.45-.39,1.88-.69,3.79-1,5.6-.75,4.39-.91,8.84-1.09,13.3-.39,9.64,1.06,20.27,1.86,25.25.43,2.65,1.11,6.5,1.71,9.12,1.2,5.16,2.01,9.25,5.04,13.71.22.29.45.58.69.87.08.1.16.19.24.29.16.2.32.39.48.59.1.12.2.24.3.35.15.18.3.35.46.53.11.12.22.25.33.37.15.17.3.34.46.51.12.13.24.26.36.39.15.17.31.33.46.5.12.13.25.26.38.39.16.16.31.33.47.49.13.13.27.27.4.4.16.16.31.32.47.47.14.14.28.27.42.41.16.15.32.31.48.46.14.13.29.27.43.4.16.15.33.31.49.46.15.13.29.27.44.4.16.15.33.3.49.45.15.13.3.26.45.4.17.15.33.29.5.43.15.13.31.26.46.39.17.14.34.29.51.43.15.13.31.25.47.38.17.14.34.28.51.42.16.12.31.25.47.37.17.14.34.27.52.4.16.12.32.24.48.36.17.13.35.26.52.39.16.12.32.23.48.35.17.13.35.25.52.37.05.03.09.07.14.1.82.58,1.49,1.12,2.08,1.63,3.03,2.6,6.79,4.24,10.77,4.54.19,0,.38.03.56.03.26.02.52.03.77.03h.26c.22,0,.44,0,.66,0,.22,0,.44.02.66,0h.26c.25,0,.51,0,.77-.03.19,0,.38-.02.56-.03,3.98-.3,7.74-1.94,10.77-4.54.59-.51,1.26-1.05,2.08-1.63.05-.03.09-.07.14-.1.17-.12.35-.25.52-.37.16-.12.32-.23.48-.35.17-.13.35-.26.52-.39.16-.12.32-.24.48-.36.17-.13.35-.27.52-.4.16-.12.31-.25.47-.37.17-.14.34-.28.51-.42.16-.13.31-.25.47-.38.17-.14.34-.28.51-.43.15-.13.31-.26.46-.39.17-.14.33-.29.5-.43.15-.13.3-.26.45-.4.17-.15.33-.3.49-.45.15-.13.3-.27.44-.4.17-.15.33-.3.49-.46.14-.13.29-.27.43-.4.16-.15.32-.31.48-.46.14-.14.28-.27.42-.41.16-.16.32-.32.47-.47.13-.13.27-.27.4-.4.16-.16.32-.33.47-.49.13-.13.25-.26.38-.39.16-.17.31-.33.46-.5.12-.13.24-.26.36-.39.16-.17.31-.34.46-.51.11-.12.22-.25.33-.37.15-.18.3-.35.46-.53.1-.12.2-.24.3-.35.17-.2.32-.39.48-.59.08-.1.16-.19.24-.29.24-.29.47-.58.69-.87,3.04-4.46,3.85-8.54,5.04-13.71.61-2.61,1.29-6.47,1.71-9.12.86-4.99,2.31-15.61,1.92-25.25Z"
                          style="fill: rgb(246, 216, 178); stroke: rgb(75, 88, 119); stroke-linecap: round; stroke-linejoin: round; stroke-width: 3px;"/>
                </g>
                <path class="cls-2" d="m321.17,101.63s1.52,2.49,6.53,2.49,6.53-2.49,6.53-2.49"
                      style="fill: none; stroke: rgb(75, 88, 119); stroke-linecap: round; stroke-linejoin: round; stroke-width: 3px;"/>
                <ellipse class="cls-17" cx="328.1" cy="126.61" rx="9.04" ry="1.92"
                         style="fill: rgb(148, 141, 102); isolation: isolate; opacity: 0.6; stroke-width: 0px;"/>
                <g>
                    <ellipse class="cls-22" cx="309.86" cy="77.95" rx="9.29" ry="3.39"
                             style="fill: rgb(231, 189, 155); stroke-width: 0px;"/>
                    <ellipse class="cls-22" cx="345.53" cy="77.95" rx="9.29" ry="3.39"
                             style="fill: rgb(231, 189, 155); stroke-width: 0px;"/>
                    <path class="cls-2" d="m315.56,82.93c0-1.42-2.55-2.57-5.7-2.57s-5.7,1.15-5.7,2.57"
                          style="fill: none; stroke: rgb(75, 88, 119); stroke-linecap: round; stroke-linejoin: round; stroke-width: 3px;"/>
                    <path class="cls-2" d="m339.83,82.93c0-1.42,2.55-2.57,5.7-2.57s5.7,1.15,5.7,2.57"
                          style="fill: none; stroke: rgb(75, 88, 119); stroke-linecap: round; stroke-linejoin: round; stroke-width: 3px;"/>
                    <path class="cls-2"
                          d="m353.09,93.01l-14.37.07c-2.98.02-5.47-2.19-5.77-5.09l-1.02-10c-.21-2.09,1.46-3.9,3.6-3.91l20.55-.1c2.14-.01,3.83,1.79,3.64,3.88l-.91,10.01c-.27,2.89-2.74,5.12-5.72,5.14Z"
                          style="fill: none; stroke: rgb(75, 88, 119); stroke-linecap: round; stroke-linejoin: round; stroke-width: 3px;"/>
                    <path class="cls-2"
                          d="m316.86,93.01l-14.37.07c-2.98.02-5.47-2.19-5.77-5.09l-1.02-10c-.21-2.09,1.46-3.9,3.6-3.91l20.55-.1c2.14-.01,3.83,1.79,3.64,3.88l-.91,10.01c-.26,2.89-2.74,5.12-5.72,5.14Z"
                          style="fill: none; stroke: rgb(75, 88, 119); stroke-linecap: round; stroke-linejoin: round; stroke-width: 3px;"/>
                    <g>
                        <path class="cls-2" d="m316.28,69.82s-6.72-1.66-11.13-1.24c-2.51.24-6.4,1.01-6.4,1.01"
                              style="fill: none; stroke: rgb(75, 88, 119); stroke-linecap: round; stroke-linejoin: round; stroke-width: 3px;"/>
                        <path class="cls-2" d="m339.11,69.82s6.72-1.66,11.13-1.24c2.51.24,6.4,1.01,6.4,1.01"
                              style="fill: none; stroke: rgb(75, 88, 119); stroke-linecap: round; stroke-linejoin: round; stroke-width: 3px;"/>
                    </g>
                    <g>
                        <line class="cls-2" x1="290.31" y1="80.41" x2="295.44" y2="80.41"
                              style="fill: none; stroke: rgb(75, 88, 119); stroke-linecap: round; stroke-linejoin: round; stroke-width: 3px;"/>
                        <line class="cls-2" x1="359.96" y1="80.41" x2="365.08" y2="80.41"
                              style="fill: none; stroke: rgb(75, 88, 119); stroke-linecap: round; stroke-linejoin: round; stroke-width: 3px;"/>
                        <line class="cls-2" x1="324.3" y1="80.41" x2="331.09" y2="80.41"
                              style="fill: none; stroke: rgb(75, 88, 119); stroke-linecap: round; stroke-linejoin: round; stroke-width: 3px;"/>
                    </g>
                </g>
                <ellipse class="cls-22" cx="327.7" cy="96.35" rx="5.65" ry="1.2"
                         style="fill: rgb(231, 189, 155); stroke-width: 0px;"/>
                <path class="cls-21"
                      d="m362.11,112.76c-.18.01-.37.01-.57.01-.58-.02-1.2-.12-1.87-.31-.11.16-.23.34-.35.51-1.64,2.45-3.61,5.74-5.93,5.63-.17-.01-.33-.03-.5-.08-2.88-.75-2.57-7.06-4.46-9-2.46-2.53-5.28-4.47-7.7-4.91-1.87-.34-3.76-.57-5.68-.6h0c-1.9.01-3.84.22-5.82.76-.4.16-.85.28-1.33.39-.08-.02-.14-.04-.22-.06-.07.02-.14.04-.22.06-.48-.11-.93-.23-1.33-.39-1.98-.54-3.92-.75-5.82-.76h0c-1.92.03-3.81.26-5.68.6-2.42.44-5.24,2.38-7.7,4.91-1.89,1.94-1.58,8.24-4.46,9-.17.04-.34.07-.5.08-2.31.11-4.29-3.18-5.93-5.63-.12-.17-.23-.35-.35-.51-.67.19-1.29.29-1.87.31-.19.01-.38,0-.57-.01.55,1.47,1.18,2.92,1.89,4.34.92,1.83,20.3,19.75,21.23,19.95.15.03.28.1.4.18.07.04.14.09.19.15s.12.1.18.15c.15.12.32.23.54.31,2.21.8,4.32,1.26,6.6,1.32h0c.63,0,1.26,0,1.92-.07.21-.02.41-.06.61-.11.07.02.15.02.22.04.07,0,.15-.02.22-.04.13.03.27.05.41.07h0c.14-.02.28-.04.41-.07.07.02.15.02.22.04.07,0,.15-.02.22-.04.19.05.4.09.61.11.66.06,1.3.08,1.92.07h0c2.28-.06,4.39-.53,6.6-1.32.22-.08.39-.19.54-.31.06-.05.13-.1.18-.15.05-.06.12-.1.19-.15.12-.08.25-.14.4-.18.93-.2,20.32-18.12,21.23-19.95.75-1.42,1.38-2.87,1.93-4.34Zm-34.41,10.69c-3.57-.13-7.17-.02-10.71.46-1.14-.09-2.28-.28-3.43-.62-5.98-1.75-5.85-8.98-2.22-12.05.38-.17.79-.3,1.22-.36,1.64-.25,3.29-.47,4.94-.64,3.11.77,6.87-.1,10.21-.37,3.34.28,7.1,1.14,10.21.37,1.65.18,3.29.4,4.94.64.43.07.84.19,1.22.36,3.63,3.07,3.76,10.3-2.22,12.05-1.15.34-2.29.52-3.43.62-3.56-.47-7.17-.59-10.73-.46Z"
                      style="fill: rgb(109, 106, 93); isolation: isolate; opacity: 0.3; stroke-width: 0px;"/>
                <path class="cls-2"
                      d="m365.7,72.2c-.18-4.46-.34-8.91-1.09-13.3-.31-1.81-.6-3.71-1-5.6-.47-2.24-1.08-4.46-2.03-6.45-3.01-6.34-9.65-11.09-16.95-11.09-.36,0-.73,0-1.09,0-2.84,5.78-9.23,7.18-15.86,7.2-6.62-.02-13.02-1.42-15.86-7.2-.36,0-.73,0-1.09,0-7.29,0-13.94,4.75-16.95,11.09-.94,1.99-1.56,4.21-2.03,6.45-.39,1.88-.69,3.79-1,5.6-.75,4.39-.91,8.84-1.09,13.3-.39,9.64,1.06,20.27,1.86,25.25.43,2.65,1.11,6.5,1.71,9.12,1.2,5.16,2.01,9.25,5.04,13.71.22.29.45.58.69.87.08.1.16.19.24.29.16.2.32.39.48.59.1.12.2.24.3.35.15.18.3.35.46.53.11.12.22.25.33.37.15.17.3.34.46.51.12.13.24.26.36.39.15.17.31.33.46.5.12.13.25.26.38.39.16.16.31.33.47.49.13.13.27.27.4.4.16.16.31.32.47.47.14.14.28.27.42.41.16.15.32.31.48.46.14.13.29.27.43.4.16.15.33.31.49.46.15.13.29.27.44.4.16.15.33.3.49.45.15.13.3.26.45.4.17.15.33.29.5.43.15.13.31.26.46.39.17.14.34.29.51.43.15.13.31.25.47.38.17.14.34.28.51.42.16.12.31.25.47.37.17.14.34.27.52.4.16.12.32.24.48.36.17.13.35.26.52.39.16.12.32.23.48.35.17.13.35.25.52.37.05.03.09.07.14.1.82.58,1.49,1.12,2.08,1.63,3.03,2.6,6.79,4.24,10.77,4.54.19,0,.38.03.56.03.26.02.52.03.77.03h.26c.22,0,.44,0,.66,0,.22,0,.44.02.66,0h.26c.25,0,.51,0,.77-.03.19,0,.38-.02.56-.03,3.98-.3,7.74-1.94,10.77-4.54.59-.51,1.26-1.05,2.08-1.63.05-.03.09-.07.14-.1.17-.12.35-.25.52-.37.16-.12.32-.23.48-.35.17-.13.35-.26.52-.39.16-.12.32-.24.48-.36.17-.13.35-.27.52-.4.16-.12.31-.25.47-.37.17-.14.34-.28.51-.42.16-.13.31-.25.47-.38.17-.14.34-.28.51-.43.15-.13.31-.26.46-.39.17-.14.33-.29.5-.43.15-.13.3-.26.45-.4.17-.15.33-.3.49-.45.15-.13.3-.27.44-.4.17-.15.33-.3.49-.46.14-.13.29-.27.43-.4.16-.15.32-.31.48-.46.14-.14.28-.27.42-.41.16-.16.32-.32.47-.47.13-.13.27-.27.4-.4.16-.16.32-.33.47-.49.13-.13.25-.26.38-.39.16-.17.31-.33.46-.5.12-.13.24-.26.36-.39.16-.17.31-.34.46-.51.11-.12.22-.25.33-.37.15-.18.3-.35.46-.53.1-.12.2-.24.3-.35.17-.2.32-.39.48-.59.08-.1.16-.19.24-.29.24-.29.47-.58.69-.87,3.04-4.46,3.85-8.54,5.04-13.71.61-2.61,1.29-6.47,1.71-9.12.86-4.99,2.31-15.61,1.92-25.25Z"
                      style="fill: none; stroke: rgb(75, 88, 119); stroke-linecap: round; stroke-linejoin: round; stroke-width: 3px;"/>
                <path class="cls-8"
                      d="m311.71,111.31s4.07,8.28,15.98,8.28,15.98-8.28,15.98-8.28c0,0-5.14-.12-16-.12-10.85,0-15.96.12-15.96.12Z"
                      style="fill: rgb(255, 255, 255); stroke: rgb(75, 88, 119); stroke-linecap: round; stroke-linejoin: round; stroke-width: 3px;"/>
            </g>
        </g>
        <g transform="matrix(1, 0, 0, 0.999957, -34.877792, -13.446113)">
            <path class="cls-8"
                  d="m70.95,188.01h0c0,4.99-4.05,9.04-9.04,9.04h0c4.99,0,9.04,4.05,9.04,9.04h0c0-4.99,4.05-9.04,9.04-9.04h0c-4.99,0-9.04-4.05-9.04-9.04Z"
                  style="fill: rgb(255, 255, 255); stroke: rgb(75, 88, 119); stroke-linecap: round; stroke-linejoin: round; stroke-width: 3px;"/>
            <path class="cls-8"
                  d="m184.93,73.01h0c0,4.99-4.05,9.04-9.04,9.04h0c4.99,0,9.04,4.05,9.04,9.04h0c0-4.99,4.05-9.04,9.04-9.04h0c-4.99,0-9.04-4.05-9.04-9.04Z"
                  style="fill: rgb(255, 255, 255); stroke: rgb(75, 88, 119); stroke-linecap: round; stroke-linejoin: round; stroke-width: 3px;"/>
        </g>
    </g>
</svg>