<svg xmlns="http://www.w3.org/2000/svg" viewBox="0 0 140 140">
    <defs>
        <style>
            .cls-1{isolation:isolate;}.cls-2{fill:#fff;}.cls-2,.cls-4,.cls-5,.cls-7{stroke:#4b5877;}.cls-2,.cls-4,.cls-5,.cls-6,.cls-7{stroke-linecap:round;stroke-linejoin:round;stroke-width:4px;}.cls-3{fill:#4b5877;opacity:0.3;mix-blend-mode:multiply;}.cls-4,.cls-6{fill:none;}.cls-5{fill:#f2c45f;}.cls-6{stroke:#e0b04f;}.cls-7{fill:#f7e0ad;}
        </style>
    </defs>
    <g class="cls-1">
        <g id="Layer_1">
            <path class="cls-2"
                  d="M72.79,20c0-6.22-15.85-11.25-35.4-11.25S2,13.79,2,20V89.83C2,96,17.85,101.08,37.39,101.08s35.4-5,35.4-11.25Z"/>
            <ellipse class="cls-3" cx="37.39" cy="21.81" rx="28.31" ry="7.29"/>
            <path class="cls-2"
                  d="M79.17,28.68H72.79v9.9h6.07A8.16,8.16,0,0,1,87,46.75V63.57a8.16,8.16,0,0,1-8.16,8.16H72.79v9.91h6.38A17.76,17.76,0,0,0,96.93,63.88V46.44A17.76,17.76,0,0,0,79.17,28.68Z"/>
            <ellipse class="cls-3" cx="37.39" cy="25.38" rx="24.68" ry="3.72"/>
            <path class="cls-4"
                  d="M72.79,20c0-6.22-15.85-11.25-35.4-11.25S2,13.79,2,20V89.83C2,96,17.85,101.08,37.39,101.08s35.4-5,35.4-11.25Z"/>
            <path class="cls-5"
                  d="M101.65,83.88h0c11.12-4.34,26.56,1.35,21.85,8.07h0c14-.2,19.93,9,8.35,13h0c11.58,4,5.69,13.25-8.35,13h0c4.71,6.72-10.73,12.41-21.85,8.06h0c-4,6.84-23.05,6.84-27,0h0c-11.12,4.35-26.56-1.34-21.85-8.06h0c-14,.2-19.93-9-8.35-13h0c-11.58-4-5.69-13.25,8.35-13h0c-4.71-6.72,10.73-12.41,21.85-8.07h0C78.6,77,97.68,77,101.65,83.88Z"/>
            <path class="cls-6"
                  d="M55.44,113.07C49.87,110,48,106,49.93,101.61c2.15-4.84,8.15-9.22,15-12.39a55,55,0,0,1,46.41,0c6.86,3.18,12.85,7.56,15,12.4,2.05,4.61-.17,8.81-6.43,11.94-.54.27-1.11.54-1.71.79"/>
            <path class="cls-6"
                  d="M108.92,117.16q-1.71.36-3.54.66a107.82,107.82,0,0,1-17.24,1.31A97.9,97.9,0,0,1,65,116.62"/>
            <path class="cls-7"
                  d="M89.13,99.8c-4.3,2.26-7.16,1.43-8.34-.82s-.26-5.07,4-7.34,11.53-.87,11.53-.87S93.43,97.53,89.13,99.8Z"/>
        </g>
    </g>
</svg>