<svg id="Layer_1" data-name="Layer 1" xmlns="http://www.w3.org/2000/svg" viewBox="0 0 140 140"><defs><style>.cls-1{fill:#669fe2;}.cls-1,.cls-2,.cls-3,.cls-5{stroke:#4b5877;stroke-linecap:round;stroke-linejoin:round;stroke-width:4px;}.cls-2{fill:#d1d7e6;}.cls-3{fill:#fff;}.cls-4{fill:#bfdcfd;opacity:0.5;}.cls-5{fill:none;}</style></defs><path class="cls-1" d="M91.79,2H48.21a4,4,0,0,0-3.94,3.7c-1.06,17.2-1.7,39.7-1.7,64.34s.64,47.07,1.7,64.26a3.94,3.94,0,0,0,3.94,3.7H91.79a4,4,0,0,0,3.94-3.7c1.06-17.2,1.7-39.7,1.7-64.34s-.64-47.07-1.7-64.26A3.94,3.94,0,0,0,91.79,2Z"/><circle class="cls-2" cx="70" cy="70" r="48.57"/><circle class="cls-3" cx="70" cy="70" r="38.85"/><path class="cls-4" d="M83.4,33.54A38.67,38.67,0,0,0,70,31.14V69l36.77,13.52A38.83,38.83,0,0,0,83.4,33.54Z"/><polyline class="cls-5" points="70 40.86 70 70 97.43 80.05"/><circle class="cls-5" cx="70" cy="70" r="38.85"/></svg>