<svg id="Layer_1" data-name="Layer 1" xmlns="http://www.w3.org/2000/svg" viewBox="0 0 140 140"><defs><style>.cls-1{fill:#fff;}.cls-1,.cls-2,.cls-3{stroke:#4b5877;stroke-linecap:round;stroke-linejoin:round;stroke-width:4px;}.cls-2{fill:#4b5877;opacity:0.5;}.cls-3{fill:#ff915c;}.cls-4{opacity:0.8;}.cls-5{fill:#4f83c0;}.cls-6{fill:#d1d7e6;}</style></defs><rect class="cls-1" x="9.6" y="20.75" width="120.93" height="109.54"/><rect class="cls-2" x="9.6" y="20.75" width="120.93" height="109.54"/><rect class="cls-1" x="2.06" y="20.81" width="136" height="102"/><rect class="cls-3" x="1.94" y="20.12" width="136" height="22.67"/><rect class="cls-1" x="23.14" y="9.71" width="7.48" height="19.95" rx="3.74"/><rect class="cls-1" x="51.93" y="9.71" width="7.48" height="19.95" rx="3.74"/><rect class="cls-1" x="80.71" y="9.71" width="7.48" height="19.95" rx="3.74"/><rect class="cls-1" x="109.5" y="9.71" width="7.48" height="19.95" rx="3.74"/><g class="cls-4"><circle class="cls-5" cx="53.85" cy="60.68" r="3.74"/><circle class="cls-5" cx="98.74" cy="75.64" r="3.74"/><circle class="cls-5" cx="38.9" cy="75.64" r="3.74"/><circle class="cls-5" cx="68.81" cy="90.6" r="3.74"/><circle class="cls-5" cx="83.77" cy="90.6" r="3.74"/><circle class="cls-5" cx="83.77" cy="105.56" r="3.74"/><circle class="cls-5" cx="113.7" cy="105.56" r="3.74"/><circle class="cls-5" cx="38.9" cy="105.56" r="3.74"/></g><circle class="cls-6" cx="68.81" cy="60.68" r="3.74"/><circle class="cls-6" cx="83.77" cy="60.68" r="3.74"/><circle class="cls-6" cx="98.74" cy="60.68" r="3.74"/><circle class="cls-6" cx="113.7" cy="60.68" r="3.74"/><circle class="cls-6" cx="38.9" cy="60.68" r="3.74"/><circle class="cls-6" cx="23.94" cy="60.68" r="3.74"/><circle class="cls-6" cx="68.81" cy="75.64" r="3.74"/><circle class="cls-6" cx="83.77" cy="75.64" r="3.74"/><circle class="cls-6" cx="113.7" cy="75.64" r="3.74"/><circle class="cls-6" cx="53.85" cy="75.64" r="3.74"/><circle class="cls-6" cx="23.94" cy="75.64" r="3.74"/><circle class="cls-6" cx="98.74" cy="90.6" r="3.74"/><circle class="cls-6" cx="113.7" cy="90.6" r="3.74"/><circle class="cls-6" cx="53.85" cy="90.6" r="3.74"/><circle class="cls-6" cx="38.9" cy="90.6" r="3.74"/><circle class="cls-6" cx="23.94" cy="90.6" r="3.74"/><circle class="cls-6" cx="68.81" cy="105.56" r="3.74"/><circle class="cls-6" cx="98.74" cy="105.56" r="3.74"/><circle class="cls-6" cx="53.85" cy="105.56" r="3.74"/><circle class="cls-6" cx="23.94" cy="105.56" r="3.74"/></svg>