<svg id="Layer_1" data-name="Layer 1" xmlns="http://www.w3.org/2000/svg" xmlns:xlink="http://www.w3.org/1999/xlink" viewBox="0 0 140 140"><defs><style>.cls-1{fill:none;}.cls-2{fill:#d0e2f7;}.cls-3{clip-path:url(#clip-path);}.cls-4{fill:url(#linear-gradient);}.cls-5{fill:#4b5877;}.cls-10,.cls-11,.cls-6,.cls-7,.cls-8{stroke:#4b5877;stroke-linecap:round;stroke-linejoin:round;stroke-width:4px;}.cls-6{fill:url(#linear-gradient-2);}.cls-7{fill:url(#linear-gradient-3);}.cls-8{fill:url(#linear-gradient-4);}.cls-11,.cls-9{fill:#fff;}.cls-10{fill:url(#linear-gradient-5);}</style><clipPath id="clip-path"><circle class="cls-1" cx="70" cy="70" r="70"/></clipPath><linearGradient id="linear-gradient" x1="65.56" y1="84.41" x2="170.52" y2="84.41" gradientUnits="userSpaceOnUse"><stop offset="0" stop-color="#bfdcfd"/><stop offset="0.24" stop-color="#afd1f8"/><stop offset="0.7" stop-color="#84b4eb"/><stop offset="1" stop-color="#669fe2"/></linearGradient><linearGradient id="linear-gradient-2" x1="58.98" y1="82.81" x2="76.92" y2="82.81" gradientTransform="translate(36.86 -19.7) rotate(22.5)" xlink:href="#linear-gradient"/><linearGradient id="linear-gradient-3" x1="58.98" y1="85.45" x2="79.11" y2="85.45" gradientTransform="translate(37.96 -19.92) rotate(22.5)" xlink:href="#linear-gradient"/><linearGradient id="linear-gradient-4" x1="33.94" y1="63.36" x2="82.61" y2="63.36" xlink:href="#linear-gradient"/><linearGradient id="linear-gradient-5" x1="33.94" y1="56.86" x2="80.47" y2="56.86" gradientTransform="translate(26.11 -17.56) rotate(22.5)" xlink:href="#linear-gradient"/></defs><circle class="cls-2" cx="70" cy="70" r="70"/><g class="cls-3"><path class="cls-4" d="M92.33,114.91a19,19,0,0,1-5.34-.77c-11-3.2-16.25-12.85-21.08-23.32a3.92,3.92,0,0,1,0-3.28A4.76,4.76,0,0,1,68.78,85a4.4,4.4,0,0,1,1.33-.21,4.73,4.73,0,0,1,4.21,2.93c2.35,5.1,4.78,10.36,8.74,14.09A14.39,14.39,0,0,0,92.4,106a8.87,8.87,0,0,0,1.56-.14c3.32-.58,6.21-3.45,7.36-7.31a41.23,41.23,0,0,0,1.26-9.84c.06-1.3.12-2.59.22-3.87,1.12-13.83,5.82-23.19,14-27.84a24.25,24.25,0,0,1,12.18-3c7.53,0,14.5,2.76,19,5.07,8.1,4.14,15.42,10.58,21.76,19.12a4.15,4.15,0,0,1,.72,3.28,4.69,4.69,0,0,1-2,3.05,4.49,4.49,0,0,1-2.38.7,4.73,4.73,0,0,1-3.76-1.95C157.76,77.06,150.11,69,139.44,65a30.79,30.79,0,0,0-10.54-2.1,19.3,19.3,0,0,0-3,.22,14.14,14.14,0,0,0-9.62,6.38c-2.22,3.33-3.57,7.5-4.27,13.13-.25,2.08-.37,4.25-.47,6.35a73.17,73.17,0,0,1-.78,8.5c-1,6-3.81,10.91-8.07,14.08A17.3,17.3,0,0,1,92.33,114.91Z"/><path class="cls-5" d="M128.94,55.91c6.28,0,12.73,2.1,18.11,4.85,8.43,4.31,15.46,11,21.07,18.53a2.52,2.52,0,0,1-.76,3.45,2.35,2.35,0,0,1-1.3.39A2.75,2.75,0,0,1,163.9,82c-6.05-8.16-14.13-15.3-23.77-18.85a33.1,33.1,0,0,0-11.23-2.22,21.37,21.37,0,0,0-3.3.24,16.2,16.2,0,0,0-11,7.25c-2.77,4.17-4,9.08-4.58,14s-.41,9.88-1.24,14.76c-.85,5-3.12,9.71-7.3,12.81a15.35,15.35,0,0,1-9.17,2.94,16.85,16.85,0,0,1-4.78-.69C77,109.16,72,99.21,67.72,90c-.57-1.23.49-2.76,1.65-3.12a2.48,2.48,0,0,1,.74-.12A2.73,2.73,0,0,1,72.5,88.5c2.41,5.22,5,10.72,9.19,14.72,2.83,2.66,6.74,4.73,10.71,4.73a10.28,10.28,0,0,0,1.91-.17c4.45-.78,7.68-4.52,8.93-8.7,1.36-4.58,1.18-9.42,1.56-14.13.8-9.89,3.68-21,13-26.26a22.34,22.34,0,0,1,11.19-2.78m0-4a26.18,26.18,0,0,0-13.17,3.31c-8.75,5-13.79,14.88-15,29.41-.11,1.33-.17,2.65-.23,3.94a39.62,39.62,0,0,1-1.18,9.36c-.7,2.39-2.65,5.36-5.78,5.91a7.1,7.1,0,0,1-1.22.11,12.31,12.31,0,0,1-8-3.65c-3.67-3.46-6-8.54-8.29-13.46a6.71,6.71,0,0,0-6-4.1,6.36,6.36,0,0,0-1.92.3,6.72,6.72,0,0,0-4.08,3.69,5.93,5.93,0,0,0,0,4.93c3.81,8.24,9.55,20.68,22.34,24.4a21.1,21.1,0,0,0,5.9.85,19.2,19.2,0,0,0,11.56-3.73c4.68-3.47,7.75-8.78,8.86-15.35a73.9,73.9,0,0,0,.79-8.73c.11-2.16.22-4.2.47-6.21.65-5.3,1.91-9.2,3.94-12.26a12.22,12.22,0,0,1,8.27-5.52,17.8,17.8,0,0,1,2.68-.19,28.81,28.81,0,0,1,9.85,2c10.21,3.76,17.57,11.57,21.94,17.47a6.74,6.74,0,0,0,5.37,2.76,6.33,6.33,0,0,0,3.45-1,6.58,6.58,0,0,0,2.9-4.37,6.16,6.16,0,0,0-1.08-4.84c-6.53-8.78-14.08-15.41-22.46-19.7-4.71-2.42-12-5.29-19.93-5.29Z"/><rect class="cls-6" x="59.43" y="79.95" width="17.05" height="5.71" transform="translate(-26.52 32.31) rotate(-22.5)"/><rect class="cls-7" x="60.52" y="79.74" width="17.05" height="11.43" transform="translate(-27.44 32.93) rotate(-22.5)"/><path class="cls-8" d="M33.94,60.43l5,12.16h0a17.93,17.93,0,0,0,23.36,9.85l9.32-3.86A17.93,17.93,0,0,0,81.22,55.1h0l-5-12.16Z"/><path class="cls-9" d="M45.19,57.78a2.07,2.07,0,0,1-.77-.15,2,2,0,0,1-1.08-1.09L36.67,40.43a4,4,0,0,1,2.16-5.23,4,4,0,0,1,1.53-.3,4,4,0,0,1,3.7,2.47l6.67,16.11a2,2,0,0,1-1.08,2.62L46,57.63A2.07,2.07,0,0,1,45.19,57.78Z"/><path class="cls-5" d="M40.36,36.9a2,2,0,0,1,1.85,1.23l6.68,16.12-3.7,1.53L38.52,39.67a2,2,0,0,1,1.08-2.62h0a2.06,2.06,0,0,1,.76-.15m0-4a5.82,5.82,0,0,0-2.29.46,6,6,0,0,0-3.25,7.84l6.67,16.11a4,4,0,0,0,2.17,2.16,3.93,3.93,0,0,0,3.06,0l3.7-1.53a4,4,0,0,0,2.16-5.22L45.91,36.6a6,6,0,0,0-5.55-3.7Z"/><path class="cls-9" d="M61,51.22a2.07,2.07,0,0,1-.77-.15A2,2,0,0,1,59.18,50L52.51,33.87a4,4,0,1,1,7.39-3.06l6.67,16.11a2,2,0,0,1-1.08,2.62l-3.7,1.53A2,2,0,0,1,61,51.22Z"/><path class="cls-5" d="M56.2,30.34a2,2,0,0,1,1.85,1.23l6.67,16.12L61,49.22,54.35,33.1a2,2,0,0,1,1.09-2.61,2.06,2.06,0,0,1,.76-.15m0-4a6,6,0,0,0-5.54,8.3l6.67,16.11a4,4,0,0,0,2.17,2.16,3.93,3.93,0,0,0,3.06,0l3.69-1.53a4,4,0,0,0,2.17-5.22L61.74,30a6,6,0,0,0-5.54-3.7Z"/><rect class="cls-10" x="34.35" y="51.26" width="45.71" height="11.21" transform="translate(-17.41 26.22) rotate(-22.5)"/><path class="cls-11" d="M100.12,26.4h0a10,10,0,0,1-10,10h0a10,10,0,0,1,10,10h0a10,10,0,0,1,10-10h0A10,10,0,0,1,100.12,26.4Z"/><path class="cls-11" d="M39.74,94.33h0a10,10,0,0,1-10,10h0a10,10,0,0,1,10,10h0a10,10,0,0,1,10-10h0A10,10,0,0,1,39.74,94.33Z"/></g></svg>