<svg id="Layer_1" data-name="Layer 1" xmlns="http://www.w3.org/2000/svg" xmlns:xlink="http://www.w3.org/1999/xlink" viewBox="0 0 140 140"><defs><style>.cls-1{fill:#d0e2f7;}.cls-11,.cls-12,.cls-2,.cls-7{fill:#fff;}.cls-10,.cls-11,.cls-12,.cls-2,.cls-3,.cls-4,.cls-5,.cls-7,.cls-8,.cls-9{stroke:#4b5877;stroke-width:4px;}.cls-12,.cls-2{stroke-miterlimit:10;}.cls-10,.cls-12,.cls-3,.cls-4,.cls-5,.cls-7,.cls-8,.cls-9{stroke-linecap:round;}.cls-10,.cls-11,.cls-3,.cls-4,.cls-5,.cls-7,.cls-8,.cls-9{stroke-linejoin:round;}.cls-3{fill:url(#linear-gradient);}.cls-4{fill:url(#linear-gradient-2);}.cls-5{fill:url(#linear-gradient-3);}.cls-6{opacity:0.5;}.cls-8{fill:url(#linear-gradient-4);}.cls-9{fill:url(#linear-gradient-5);}.cls-10{fill:url(#linear-gradient-6);}</style><linearGradient id="linear-gradient" x1="56.67" y1="102.34" x2="83.33" y2="102.34" gradientUnits="userSpaceOnUse"><stop offset="0" stop-color="#bfdcfd"/><stop offset="0.24" stop-color="#afd1f8"/><stop offset="0.7" stop-color="#84b4eb"/><stop offset="1" stop-color="#669fe2"/></linearGradient><linearGradient id="linear-gradient-2" x1="56.67" y1="109.01" x2="83.33" y2="109.01" xlink:href="#linear-gradient"/><linearGradient id="linear-gradient-3" x1="56.67" y1="115.68" x2="83.33" y2="115.68" xlink:href="#linear-gradient"/><linearGradient id="linear-gradient-4" x1="75.98" y1="102.34" x2="83.33" y2="102.34" xlink:href="#linear-gradient"/><linearGradient id="linear-gradient-5" x1="75.98" y1="109.01" x2="83.33" y2="109.01" xlink:href="#linear-gradient"/><linearGradient id="linear-gradient-6" x1="75.98" y1="115.68" x2="83.33" y2="115.68" xlink:href="#linear-gradient"/></defs><circle class="cls-1" cx="70" cy="70" r="70"/><path class="cls-2" d="M96.67,65.68A26.67,26.67,0,1,0,52.14,85.47a13.43,13.43,0,0,1,4.53,10v.26A3.33,3.33,0,0,0,60,99H80a3.33,3.33,0,0,0,3.33-3.33v-.26a13.24,13.24,0,0,1,4.44-9.87A26.57,26.57,0,0,0,96.67,65.68Z"/><rect class="cls-3" x="56.67" y="99.01" width="26.67" height="6.67" rx="3.33"/><rect class="cls-4" x="56.67" y="105.68" width="26.67" height="6.67" rx="3.33"/><rect class="cls-5" x="56.67" y="112.34" width="26.67" height="6.67" rx="3.33"/><g class="cls-6"><path class="cls-7" d="M64,112.34h-4.5a2.86,2.86,0,0,0-2.85,2.86v1A2.86,2.86,0,0,0,59.52,119h3.1"/><path class="cls-7" d="M64,105.68h-4.5a2.85,2.85,0,0,0-2.85,2.85v1a2.86,2.86,0,0,0,2.85,2.86h3.1"/><path class="cls-7" d="M64,99h-4.5a2.86,2.86,0,0,0-2.85,2.86v.95a2.86,2.86,0,0,0,2.85,2.86h3.1"/></g><path class="cls-8" d="M76,105.68h4.5a2.86,2.86,0,0,0,2.85-2.86v-.95A2.86,2.86,0,0,0,80.48,99h-3.1"/><path class="cls-9" d="M76,112.34h4.5a2.86,2.86,0,0,0,2.85-2.86v-1a2.85,2.85,0,0,0-2.85-2.85h-3.1"/><path class="cls-10" d="M76,119h4.5a2.86,2.86,0,0,0,2.85-2.86v-1a2.86,2.86,0,0,0-2.85-2.86h-3.1"/><rect class="cls-11" x="66" y="70.21" width="8" height="28.83"/><path class="cls-11" d="M78,62.21h0a4,4,0,0,1,4,4v0a4,4,0,0,1-4,4H74a0,0,0,0,1,0,0v-4A4,4,0,0,1,78,62.21Z"/><path class="cls-11" d="M58,62.21h4a4,4,0,0,1,4,4v0a4,4,0,0,1-4,4h0a4,4,0,0,1-4-4v-4A0,0,0,0,1,58,62.21Z" transform="translate(124 132.41) rotate(-180)"/><line class="cls-12" x1="70" y1="20.99" x2="70" y2="26.99"/><line class="cls-12" x1="38.86" y1="33.89" x2="43.1" y2="38.13"/><line class="cls-12" x1="96.9" y1="91.92" x2="101.14" y2="96.17"/><line class="cls-12" x1="25.96" y1="65.03" x2="31.96" y2="65.03"/><line class="cls-12" x1="108.04" y1="65.03" x2="114.04" y2="65.03"/><line class="cls-12" x1="38.86" y1="96.17" x2="43.1" y2="91.92"/><line class="cls-12" x1="96.9" y1="38.13" x2="101.14" y2="33.89"/></svg>