<svg id="Layer_1" data-name="Layer 1" xmlns="http://www.w3.org/2000/svg" xmlns:xlink="http://www.w3.org/1999/xlink" viewBox="0 0 140 140"><defs><style>.cls-1{fill:#d0e2f7;}.cls-2{fill:#fff;}.cls-2,.cls-3{stroke:#4b5877;stroke-linecap:round;stroke-linejoin:round;stroke-width:4px;}.cls-3{fill:url(#linear-gradient);}</style><linearGradient id="linear-gradient" x1="30" y1="95.6" x2="110" y2="95.6" gradientUnits="userSpaceOnUse"><stop offset="0" stop-color="#bfdcfd"/><stop offset="0.24" stop-color="#afd1f8"/><stop offset="0.7" stop-color="#84b4eb"/><stop offset="1" stop-color="#669fe2"/></linearGradient></defs><circle class="cls-1" cx="70" cy="70" r="70"/><rect class="cls-2" x="64.29" y="25" width="11.43" height="80"/><polygon class="cls-2" points="75.71 36.43 75.71 47.86 104.29 47.86 110 42.14 104.29 36.43 75.71 36.43"/><polygon class="cls-2" points="64.29 70.71 64.29 59.29 35.71 59.29 30 65 35.71 70.71 64.29 70.71"/><polygon class="cls-2" points="75.71 47.86 75.71 59.29 104.29 59.29 110 53.57 104.29 47.86 75.71 47.86"/><polygon class="cls-2" points="64.29 59.29 64.29 47.86 35.71 47.86 30 53.57 35.71 59.29 64.29 59.29"/><path class="cls-3" d="M30.57,105H109.2c2.27-4.56-.55-9-5-10.23s-8.68,1.14-9,1.34c-2.41-7.14-11.22-11-17.9-9.67a12.8,12.8,0,0,0-9.12,7.37c-2-3.52-7.22-5.33-11.72-4.4-3.59.74-6.3,3.13-6.79,6-.81-.31-8.82-3.27-14.51-.57C30.39,97.11,29.11,102.41,30.57,105Z"/></svg>