<svg id="Layer_1" data-name="Layer 1" xmlns="http://www.w3.org/2000/svg" xmlns:xlink="http://www.w3.org/1999/xlink" viewBox="0 0 140 140"><defs><style>.cls-1{fill:none;}.cls-2{clip-path:url(#clip-path);}.cls-3{fill:url(#linear-gradient);}.cls-4{fill:#4b5877;}.cls-5{fill:#d0e2f7;}.cls-6,.cls-7{fill:#fff;}.cls-7,.cls-8{stroke:#4b5877;stroke-linecap:round;stroke-miterlimit:10;stroke-width:4px;}.cls-8{fill:url(#linear-gradient-2);}</style><clipPath id="clip-path"><circle class="cls-1" cx="-90" cy="70" r="70"/></clipPath><linearGradient id="linear-gradient" x1="-94.44" y1="84.41" x2="10.52" y2="84.41" gradientUnits="userSpaceOnUse"><stop offset="0" stop-color="#bfdcfd"/><stop offset="0.24" stop-color="#afd1f8"/><stop offset="0.7" stop-color="#84b4eb"/><stop offset="1" stop-color="#669fe2"/></linearGradient><linearGradient id="linear-gradient-2" x1="52.86" y1="72.62" x2="87.14" y2="72.62" xlink:href="#linear-gradient"/></defs><g class="cls-2"><path class="cls-3" d="M-67.67,114.91a19,19,0,0,1-5.34-.77c-11-3.2-16.25-12.85-21.08-23.32a3.92,3.92,0,0,1,0-3.28A4.76,4.76,0,0,1-91.22,85a4.4,4.4,0,0,1,1.33-.21,4.73,4.73,0,0,1,4.21,2.93c2.35,5.1,4.78,10.36,8.74,14.09A14.39,14.39,0,0,0-67.6,106a8.87,8.87,0,0,0,1.56-.14c3.32-.58,6.21-3.45,7.36-7.31a41.23,41.23,0,0,0,1.26-9.84c.06-1.3.12-2.59.22-3.87C-56.08,71-51.38,61.6-43.24,57a24.25,24.25,0,0,1,12.18-3c7.53,0,14.5,2.76,19,5.07C-3.94,63.12,3.38,69.56,9.72,78.1a4.15,4.15,0,0,1,.72,3.28,4.69,4.69,0,0,1-2,3.05,4.49,4.49,0,0,1-2.38.7A4.73,4.73,0,0,1,2.3,83.18C-2.24,77.06-9.89,69-20.56,65a30.79,30.79,0,0,0-10.54-2.1,19.3,19.3,0,0,0-3,.22,14.14,14.14,0,0,0-9.62,6.38C-45.93,72.85-47.28,77-48,82.65c-.25,2.08-.37,4.25-.47,6.35a73.17,73.17,0,0,1-.78,8.5c-1,6-3.81,10.91-8.07,14.08A17.3,17.3,0,0,1-67.67,114.91Z"/><path class="cls-4" d="M-31.06,55.91c6.28,0,12.73,2.1,18.11,4.85,8.43,4.31,15.46,11,21.07,18.53a2.52,2.52,0,0,1-.76,3.45,2.35,2.35,0,0,1-1.3.39A2.75,2.75,0,0,1,3.9,82c-6-8.16-14.13-15.3-23.77-18.85A33.1,33.1,0,0,0-31.1,60.92a21.37,21.37,0,0,0-3.3.24,16.2,16.2,0,0,0-11,7.25c-2.77,4.17-4,9.08-4.58,14s-.41,9.88-1.24,14.76c-.85,5-3.12,9.71-7.3,12.81a15.35,15.35,0,0,1-9.17,2.94,16.85,16.85,0,0,1-4.78-.69C-83,109.16-88,99.21-92.28,90c-.57-1.23.49-2.76,1.65-3.12a2.48,2.48,0,0,1,.74-.12A2.73,2.73,0,0,1-87.5,88.5c2.41,5.22,5,10.72,9.19,14.72,2.83,2.66,6.74,4.73,10.71,4.73a10.28,10.28,0,0,0,1.91-.17c4.45-.78,7.68-4.52,8.93-8.7C-55.4,94.5-55.58,89.66-55.2,85c.8-9.89,3.68-21,13-26.26a22.34,22.34,0,0,1,11.19-2.78m0-4a26.18,26.18,0,0,0-13.17,3.31c-8.75,5-13.79,14.88-15,29.41-.11,1.33-.17,2.65-.23,3.94a39.62,39.62,0,0,1-1.18,9.36c-.7,2.39-2.65,5.36-5.78,5.91a7.1,7.1,0,0,1-1.22.11,12.31,12.31,0,0,1-8-3.65c-3.67-3.46-6-8.54-8.29-13.46a6.71,6.71,0,0,0-6-4.1,6.36,6.36,0,0,0-1.92.3,6.72,6.72,0,0,0-4.08,3.69,5.93,5.93,0,0,0,0,4.93c3.81,8.24,9.55,20.68,22.34,24.4a21.1,21.1,0,0,0,5.9.85,19.2,19.2,0,0,0,11.56-3.73c4.68-3.47,7.75-8.78,8.86-15.35a73.9,73.9,0,0,0,.79-8.73c.11-2.16.22-4.2.47-6.21.65-5.3,1.91-9.2,3.94-12.26a12.22,12.22,0,0,1,8.27-5.52,17.8,17.8,0,0,1,2.68-.19,28.81,28.81,0,0,1,9.85,2C-11,70.66-3.68,78.47.69,84.37a6.74,6.74,0,0,0,5.37,2.76,6.33,6.33,0,0,0,3.45-1,6.58,6.58,0,0,0,2.9-4.37,6.16,6.16,0,0,0-1.08-4.84C4.8,68.12-2.75,61.49-11.13,57.2c-4.71-2.42-12-5.29-19.93-5.29Z"/></g><circle class="cls-5" cx="70" cy="70" r="70"/><path class="cls-6" d="M81.5,44.24V36.61h-23v7.63H50.86V34.81a6,6,0,0,1,6-6H83.14a6,6,0,0,1,6,6v9.43Z"/><path class="cls-4" d="M83.14,30.81a4,4,0,0,1,4,4v7.43H83.5V35.61a1,1,0,0,0-1-1h-25a1,1,0,0,0-1,1v6.63H52.86V34.81a4,4,0,0,1,4-4H83.14m0-4H56.86a8,8,0,0,0-8,8V46.24H60.5V38.61h19v7.63H91.14V34.81a8,8,0,0,0-8-8Z"/><rect class="cls-7" x="30" y="44.04" width="80" height="57.14" rx="10"/><path class="cls-8" d="M86.14,66.9H75.71V56.47a1,1,0,0,0-1-1H65.29a1,1,0,0,0-1,1V66.9H53.86a1,1,0,0,0-1,1v9.43a1,1,0,0,0,1,1H64.29V88.76a1,1,0,0,0,1,1h9.42a1,1,0,0,0,1-1V78.33H86.14a1,1,0,0,0,1-1V67.9A1,1,0,0,0,86.14,66.9Z"/></svg>