<?xml version="1.0" encoding="utf-8"?>
<svg viewBox="0 0 160 20" xmlns="http://www.w3.org/2000/svg">
    <defs/>
    <a href="mailto:help@meestermac.nl" aria-label="Stuur een e-mail naar Meester Mac">
        <rect width="160px" height="20px" fill="rgba(255,255,255,0)"/>
        <path d="M 1.97 14.9 L 1.97 3.5 L 3.29 3.5 L 3.29 14.9 Z M 7.69 14.9 L 7.69 10.73 L 9.01 10.73 L 9.01 14.9 Z M 7.69 10.73 Q 7.69 9.52 7.41 8.9 Q 7.13 8.27 6.64 8.03 Q 6.16 7.8 5.54 7.8 Q 4.48 7.78 3.88 8.55 Q 3.29 9.31 3.29 10.68 L 2.66 10.68 Q 2.66 9.39 3.03 8.46 Q 3.4 7.54 4.12 7.05 Q 4.84 6.56 5.85 6.56 Q 6.81 6.56 7.52 6.94 Q 8.22 7.32 8.62 8.16 Q 9.02 8.99 9.01 10.34 L 9.01 10.73 Z M 14.37 15.09 Q 13.18 15.09 12.27 14.55 Q 11.36 14 10.85 13.04 Q 10.34 12.08 10.34 10.83 Q 10.34 9.57 10.85 8.61 Q 11.36 7.65 12.26 7.1 Q 13.17 6.56 14.34 6.56 Q 15.48 6.56 16.31 7.12 Q 17.14 7.68 17.61 8.7 Q 18.07 9.72 18.07 11.07 L 11.35 11.07 L 11.65 10.79 Q 11.65 11.77 12.01 12.46 Q 12.37 13.15 13 13.53 Q 13.62 13.9 14.44 13.9 Q 15.3 13.9 15.89 13.49 Q 16.47 13.07 16.82 12.42 L 17.96 12.99 Q 17.63 13.63 17.12 14.1 Q 16.6 14.57 15.91 14.83 Q 15.22 15.09 14.37 15.09 Z M 11.75 10.24 L 11.41 9.98 L 17 9.98 L 16.65 10.26 Q 16.65 9.47 16.34 8.9 Q 16.03 8.33 15.51 8.03 Q 14.99 7.73 14.32 7.73 Q 13.66 7.73 13.07 8.03 Q 12.48 8.33 12.12 8.9 Q 11.75 9.46 11.75 10.24 Z M 19.64 14.9 L 19.64 3.5 L 20.96 3.5 L 20.96 14.9 Z M 23.51 18.15 L 23.51 6.75 L 24.75 6.75 L 24.83 8.25 L 24.83 18.15 Z M 27.57 15.09 Q 26.56 15.09 25.78 14.55 Q 25.01 14.02 24.58 13.05 Q 24.15 12.08 24.15 10.83 Q 24.15 9.56 24.58 8.59 Q 25.01 7.63 25.78 7.1 Q 26.56 6.56 27.57 6.56 Q 28.66 6.56 29.49 7.1 Q 30.32 7.63 30.78 8.59 Q 31.25 9.56 31.25 10.83 Q 31.25 12.08 30.78 13.05 Q 30.32 14.02 29.49 14.55 Q 28.66 15.09 27.57 15.09 Z M 27.27 13.89 Q 28.04 13.89 28.63 13.5 Q 29.23 13.1 29.57 12.41 Q 29.91 11.72 29.91 10.83 Q 29.91 9.93 29.58 9.24 Q 29.24 8.55 28.65 8.15 Q 28.06 7.76 27.29 7.76 Q 26.57 7.76 26.02 8.15 Q 25.46 8.54 25.14 9.24 Q 24.83 9.93 24.83 10.82 Q 24.83 11.72 25.14 12.41 Q 25.46 13.11 26.01 13.5 Q 26.56 13.89 27.27 13.89 Z M 40.77 18.35 Q 39.1 18.35 37.7 17.79 Q 36.3 17.24 35.28 16.23 Q 34.26 15.21 33.7 13.83 Q 33.14 12.45 33.14 10.79 Q 33.14 9.13 33.7 7.76 Q 34.26 6.38 35.28 5.37 Q 36.3 4.36 37.7 3.81 Q 39.1 3.25 40.77 3.25 Q 42.3 3.25 43.58 3.81 Q 44.86 4.36 45.79 5.37 Q 46.73 6.38 47.24 7.76 Q 47.74 9.13 47.74 10.79 L 46.55 10.79 Q 46.55 9.38 46.13 8.2 Q 45.7 7.03 44.93 6.17 Q 44.16 5.31 43.1 4.84 Q 42.04 4.38 40.77 4.38 Q 39.36 4.38 38.18 4.84 Q 37.01 5.31 36.15 6.17 Q 35.29 7.03 34.81 8.21 Q 34.33 9.38 34.33 10.79 Q 34.33 12.21 34.81 13.38 Q 35.29 14.55 36.15 15.42 Q 37.01 16.28 38.18 16.75 Q 39.36 17.22 40.77 17.22 Q 41.41 17.22 42.15 17.06 Q 42.89 16.9 43.41 16.64 L 44 17.53 Q 43.31 17.91 42.41 18.13 Q 41.5 18.35 40.77 18.35 Z M 39.91 14.65 Q 38.85 14.65 38.03 14.16 Q 37.22 13.66 36.76 12.78 Q 36.3 11.9 36.3 10.78 Q 36.3 9.64 36.76 8.77 Q 37.22 7.91 38.03 7.41 Q 38.85 6.92 39.91 6.92 Q 40.95 6.92 41.74 7.41 Q 42.53 7.91 42.99 8.77 Q 43.44 9.64 43.44 10.78 Q 43.44 11.9 42.99 12.78 Q 42.53 13.66 41.74 14.16 Q 40.95 14.65 39.91 14.65 Z M 40.22 13.46 Q 40.97 13.46 41.55 13.12 Q 42.13 12.78 42.45 12.17 Q 42.78 11.56 42.78 10.78 Q 42.78 9.99 42.44 9.39 Q 42.11 8.79 41.53 8.45 Q 40.96 8.11 40.2 8.11 Q 39.45 8.11 38.88 8.45 Q 38.3 8.79 37.97 9.39 Q 37.63 9.98 37.63 10.78 Q 37.63 11.55 37.97 12.17 Q 38.3 12.78 38.88 13.12 Q 39.46 13.46 40.22 13.46 Z M 44.65 15.14 Q 44.05 15.14 43.62 14.91 Q 43.2 14.68 42.98 14.24 Q 42.76 13.81 42.76 13.2 L 44.01 13.19 Q 44.01 13.59 44.21 13.83 Q 44.41 14.07 44.71 14.07 Q 45.25 14.07 45.67 13.64 Q 46.08 13.22 46.32 12.48 Q 46.55 11.75 46.55 10.79 L 47.74 10.79 Q 47.74 12.06 47.35 13.04 Q 46.96 14.02 46.25 14.58 Q 45.55 15.14 44.65 15.14 Z M 42.76 13.2 L 42.73 7.1 L 44.01 7.1 L 44.01 13.19 Z M 49.94 14.9 L 49.94 6.75 L 51.18 6.75 L 51.22 7.89 Q 51.62 7.24 52.2 6.9 Q 52.79 6.56 53.57 6.56 Q 54.53 6.56 55.22 7.02 Q 55.91 7.47 56.22 8.4 Q 56.58 7.5 57.23 7.03 Q 57.88 6.56 58.81 6.56 Q 60.18 6.56 60.97 7.47 Q 61.76 8.38 61.74 10.24 L 61.74 14.9 L 60.42 14.9 L 60.42 10.73 Q 60.42 9.52 60.17 8.9 Q 59.92 8.27 59.5 8.03 Q 59.07 7.8 58.52 7.8 Q 57.56 7.78 57.03 8.55 Q 56.5 9.31 56.5 10.68 L 56.5 14.9 L 55.18 14.9 L 55.18 10.73 Q 55.18 9.52 54.93 8.9 Q 54.68 8.27 54.25 8.03 Q 53.81 7.8 53.28 7.8 Q 52.32 7.78 51.79 8.55 Q 51.26 9.31 51.26 10.68 L 51.26 14.9 Z M 67.39 15.09 Q 66.2 15.09 65.29 14.55 Q 64.38 14 63.86 13.04 Q 63.35 12.08 63.35 10.83 Q 63.35 9.57 63.86 8.61 Q 64.38 7.65 65.28 7.1 Q 66.18 6.56 67.36 6.56 Q 68.5 6.56 69.33 7.12 Q 70.16 7.68 70.62 8.7 Q 71.09 9.72 71.09 11.07 L 64.36 11.07 L 64.67 10.79 Q 64.67 11.77 65.03 12.46 Q 65.39 13.15 66.01 13.53 Q 66.64 13.9 67.45 13.9 Q 68.32 13.9 68.9 13.49 Q 69.49 13.07 69.83 12.42 L 70.97 12.99 Q 70.65 13.63 70.13 14.1 Q 69.62 14.57 68.93 14.83 Q 68.24 15.09 67.39 15.09 Z M 64.77 10.24 L 64.43 9.98 L 70.01 9.98 L 69.67 10.26 Q 69.67 9.47 69.36 8.9 Q 69.05 8.33 68.53 8.03 Q 68.01 7.73 67.34 7.73 Q 66.67 7.73 66.09 8.03 Q 65.5 8.33 65.13 8.9 Q 64.77 9.46 64.77 10.24 Z M 76.23 15.09 Q 75.04 15.09 74.12 14.55 Q 73.21 14 72.7 13.04 Q 72.19 12.08 72.19 10.83 Q 72.19 9.57 72.7 8.61 Q 73.21 7.65 74.12 7.1 Q 75.02 6.56 76.19 6.56 Q 77.33 6.56 78.16 7.12 Q 78.99 7.68 79.46 8.7 Q 79.92 9.72 79.92 11.07 L 73.2 11.07 L 73.51 10.79 Q 73.51 11.77 73.86 12.46 Q 74.22 13.15 74.85 13.53 Q 75.48 13.9 76.29 13.9 Q 77.15 13.9 77.74 13.49 Q 78.33 13.07 78.67 12.42 L 79.81 12.99 Q 79.48 13.63 78.97 14.1 Q 78.46 14.57 77.76 14.83 Q 77.07 15.09 76.23 15.09 Z M 73.6 10.24 L 73.26 9.98 L 78.85 9.98 L 78.5 10.26 Q 78.5 9.47 78.2 8.9 Q 77.89 8.33 77.37 8.03 Q 76.84 7.73 76.18 7.73 Q 75.51 7.73 74.92 8.03 Q 74.34 8.33 73.97 8.9 Q 73.6 9.46 73.6 10.24 Z M 84.34 15.09 Q 83.45 15.09 82.78 14.82 Q 82.11 14.55 81.67 14.11 Q 81.22 13.67 81.02 13.15 L 82.18 12.68 Q 82.44 13.22 83 13.56 Q 83.56 13.9 84.21 13.9 Q 84.98 13.9 85.49 13.6 Q 86.01 13.3 86.01 12.76 Q 86.01 12.26 85.62 11.95 Q 85.24 11.64 84.51 11.46 L 83.73 11.25 Q 82.62 10.96 82 10.36 Q 81.38 9.77 81.38 9 Q 81.38 7.85 82.14 7.2 Q 82.9 6.56 84.39 6.56 Q 85.11 6.56 85.7 6.77 Q 86.3 6.98 86.71 7.37 Q 87.13 7.75 87.32 8.27 L 86.18 8.77 Q 85.97 8.24 85.48 7.99 Q 85 7.75 84.3 7.75 Q 83.55 7.75 83.13 8.06 Q 82.72 8.37 82.72 8.94 Q 82.72 9.26 83.06 9.55 Q 83.4 9.83 84.1 10.01 L 84.9 10.21 Q 85.7 10.4 86.23 10.79 Q 86.77 11.18 87.05 11.67 Q 87.32 12.16 87.32 12.71 Q 87.32 13.45 86.93 13.98 Q 86.54 14.52 85.88 14.81 Q 85.21 15.09 84.34 15.09 Z M 93.39 15.09 Q 92.2 15.09 91.55 14.47 Q 90.9 13.85 90.9 12.73 L 90.9 4.21 L 92.22 4.21 L 92.22 12.58 Q 92.22 13.2 92.55 13.54 Q 92.89 13.87 93.49 13.87 Q 93.67 13.87 93.86 13.81 Q 94.04 13.76 94.37 13.54 L 94.87 14.6 Q 94.45 14.88 94.1 14.99 Q 93.75 15.09 93.39 15.09 Z M 89.48 7.93 L 89.48 6.75 L 94.65 6.75 L 94.65 7.93 Z M 100.21 15.09 Q 99.02 15.09 98.11 14.55 Q 97.2 14 96.68 13.04 Q 96.17 12.08 96.17 10.83 Q 96.17 9.57 96.68 8.61 Q 97.2 7.65 98.1 7.1 Q 99 6.56 100.18 6.56 Q 101.32 6.56 102.15 7.12 Q 102.98 7.68 103.44 8.7 Q 103.9 9.72 103.9 11.07 L 97.18 11.07 L 97.49 10.79 Q 97.49 11.77 97.85 12.46 Q 98.21 13.15 98.83 13.53 Q 99.46 13.9 100.27 13.9 Q 101.14 13.9 101.72 13.49 Q 102.31 13.07 102.65 12.42 L 103.79 12.99 Q 103.47 13.63 102.95 14.1 Q 102.44 14.57 101.75 14.83 Q 101.06 15.09 100.21 15.09 Z M 97.59 10.24 L 97.25 9.98 L 102.83 9.98 L 102.49 10.26 Q 102.49 9.47 102.18 8.9 Q 101.87 8.33 101.35 8.03 Q 100.83 7.73 100.16 7.73 Q 99.49 7.73 98.91 8.03 Q 98.32 8.33 97.95 8.9 Q 97.59 9.46 97.59 10.24 Z M 106.21 10.48 Q 106.21 9.16 106.71 8.34 Q 107.2 7.52 108 7.12 Q 108.8 6.72 109.68 6.72 L 109.68 7.96 Q 108.95 7.96 108.29 8.2 Q 107.63 8.43 107.21 8.97 Q 106.8 9.51 106.8 10.42 Z M 105.48 14.9 L 105.48 6.75 L 106.8 6.75 L 106.8 14.9 Z M 111.79 14.9 L 111.79 6.75 L 113.03 6.75 L 113.08 7.89 Q 113.47 7.24 114.05 6.9 Q 114.64 6.56 115.42 6.56 Q 116.38 6.56 117.07 7.02 Q 117.77 7.47 118.08 8.4 Q 118.43 7.5 119.08 7.03 Q 119.74 6.56 120.66 6.56 Q 122.03 6.56 122.82 7.47 Q 123.61 8.38 123.59 10.24 L 123.59 14.9 L 122.28 14.9 L 122.28 10.73 Q 122.28 9.52 122.02 8.9 Q 121.77 8.27 121.35 8.03 Q 120.92 7.8 120.37 7.8 Q 119.41 7.78 118.88 8.55 Q 118.35 9.31 118.35 10.68 L 118.35 14.9 L 117.03 14.9 L 117.03 10.73 Q 117.03 9.52 116.78 8.9 Q 116.53 8.27 116.1 8.03 Q 115.67 7.8 115.13 7.8 Q 114.17 7.78 113.64 8.55 Q 113.11 9.31 113.11 10.68 L 113.11 14.9 Z M 130.69 14.9 L 130.61 13.54 L 130.61 10.6 Q 130.61 9.65 130.4 9.02 Q 130.19 8.38 129.74 8.07 Q 129.29 7.75 128.56 7.75 Q 127.89 7.75 127.42 8.02 Q 126.95 8.29 126.62 8.87 L 125.45 8.4 Q 125.76 7.83 126.19 7.42 Q 126.62 7.02 127.21 6.79 Q 127.81 6.56 128.56 6.56 Q 129.7 6.56 130.45 7.01 Q 131.19 7.45 131.56 8.33 Q 131.93 9.2 131.93 10.48 L 131.91 14.9 Z M 128.25 15.09 Q 126.81 15.09 126.01 14.43 Q 125.2 13.77 125.2 12.6 Q 125.2 11.36 126.03 10.7 Q 126.85 10.04 128.33 10.04 L 130.66 10.04 L 130.66 11.13 L 128.64 11.13 Q 127.5 11.13 127.02 11.52 Q 126.54 11.9 126.54 12.58 Q 126.54 13.22 127 13.58 Q 127.47 13.94 128.31 13.94 Q 129.01 13.94 129.53 13.63 Q 130.06 13.33 130.33 12.78 Q 130.61 12.23 130.61 11.46 L 131.18 11.46 Q 131.18 13.12 130.43 14.11 Q 129.68 15.09 128.25 15.09 Z M 136.88 15.09 Q 135.67 15.09 134.75 14.55 Q 133.82 14 133.3 13.04 Q 132.78 12.08 132.78 10.83 Q 132.78 9.57 133.29 8.61 Q 133.8 7.65 134.73 7.1 Q 135.66 6.56 136.85 6.56 Q 138.02 6.56 138.95 7.1 Q 139.88 7.63 140.36 8.61 L 139.18 9.15 Q 138.83 8.51 138.21 8.15 Q 137.6 7.78 136.81 7.78 Q 136.02 7.78 135.41 8.17 Q 134.8 8.56 134.45 9.25 Q 134.11 9.93 134.11 10.83 Q 134.11 11.72 134.46 12.4 Q 134.81 13.09 135.43 13.48 Q 136.05 13.87 136.85 13.87 Q 137.65 13.87 138.27 13.46 Q 138.9 13.06 139.21 12.34 L 140.41 12.88 Q 139.94 13.92 139 14.51 Q 138.07 15.09 136.88 15.09 Z M 143.9 15.12 Q 143.53 15.12 143.26 14.86 Q 142.99 14.59 142.99 14.21 Q 142.99 13.84 143.26 13.57 Q 143.53 13.3 143.9 13.3 Q 144.28 13.3 144.54 13.57 Q 144.81 13.84 144.81 14.21 Q 144.81 14.59 144.54 14.86 Q 144.28 15.12 143.9 15.12 Z M 145.87 14.9 L 145.87 6.75 L 147.11 6.75 L 147.19 8.25 L 147.19 14.9 Z M 151.59 14.9 L 151.59 10.73 L 152.91 10.73 L 152.91 14.9 Z M 151.59 10.73 Q 151.59 9.52 151.3 8.9 Q 151.02 8.27 150.54 8.03 Q 150.06 7.8 149.44 7.8 Q 148.36 7.78 147.78 8.55 Q 147.19 9.31 147.19 10.68 L 146.56 10.68 Q 146.56 9.39 146.93 8.46 Q 147.3 7.54 148.02 7.05 Q 148.74 6.56 149.75 6.56 Q 150.69 6.56 151.41 6.94 Q 152.12 7.32 152.52 8.16 Q 152.92 8.99 152.91 10.34 L 152.91 10.73 Z M 155.97 14.9 L 155.97 3.5 L 157.29 3.5 L 157.29 14.9 Z"
              transform="matrix(0.997831, 0, 0, 0.982655, -0.830196, 0.386238)"
              style="fill: rgb(51, 51, 51); line-height: 26.0519px;"/>
    </a>
</svg>