<?xml version="1.0" encoding="utf-8"?>
<svg viewBox="0 0 97 20" xmlns="http://www.w3.org/2000/svg">
    <defs/>
    <a href="tel:+31640143875" aria-label="Bel Meester Mac">
        <rect width="97px" height="20px" fill="rgba(255,255,255,0)"/>
        <path d="M 6.04 15.09 Q 4.74 15.09 3.73 14.33 Q 2.72 13.58 2.15 12.25 Q 1.58 10.92 1.58 9.2 Q 1.58 7.47 2.15 6.14 Q 2.73 4.82 3.73 4.06 Q 4.73 3.3 6.04 3.3 Q 7.36 3.3 8.36 4.06 Q 9.37 4.82 9.95 6.14 Q 10.52 7.47 10.52 9.2 Q 10.52 10.92 9.95 12.25 Q 9.37 13.58 8.36 14.33 Q 7.36 15.09 6.04 15.09 Z M 6.05 13.84 Q 6.96 13.84 7.67 13.24 Q 8.37 12.65 8.76 11.6 Q 9.15 10.55 9.15 9.19 Q 9.15 7.83 8.76 6.79 Q 8.36 5.75 7.66 5.15 Q 6.95 4.56 6.04 4.56 Q 5.14 4.56 4.43 5.15 Q 3.73 5.75 3.34 6.79 Q 2.95 7.83 2.95 9.19 Q 2.95 10.55 3.34 11.6 Q 3.74 12.64 4.44 13.24 Q 5.15 13.84 6.05 13.84 Z M 15.78 15.09 Q 14.61 15.09 13.81 14.64 Q 13.01 14.2 12.54 13.43 Q 12.07 12.67 11.87 11.66 Q 11.66 10.66 11.66 9.54 Q 11.66 8.09 11.96 6.93 Q 12.27 5.76 12.84 4.96 Q 13.41 4.15 14.22 3.73 Q 15.03 3.3 16.06 3.3 Q 16.91 3.3 17.74 3.57 Q 18.58 3.84 19.23 4.31 L 18.47 5.31 Q 17.95 4.93 17.35 4.74 Q 16.74 4.54 16.19 4.54 Q 14.53 4.54 13.67 5.93 Q 12.82 7.32 12.9 10.16 L 12.61 9.88 Q 13 8.89 13.86 8.3 Q 14.72 7.72 15.9 7.72 Q 16.99 7.72 17.84 8.2 Q 18.7 8.68 19.18 9.51 Q 19.66 10.35 19.66 11.43 Q 19.66 12.49 19.17 13.32 Q 18.68 14.16 17.81 14.63 Q 16.94 15.09 15.78 15.09 Z M 15.78 13.87 Q 16.52 13.87 17.08 13.56 Q 17.64 13.25 17.96 12.69 Q 18.27 12.13 18.27 11.4 Q 18.27 10.66 17.96 10.11 Q 17.64 9.56 17.08 9.24 Q 16.52 8.92 15.78 8.92 Q 15.07 8.92 14.5 9.24 Q 13.93 9.56 13.61 10.11 Q 13.29 10.66 13.29 11.4 Q 13.29 12.13 13.61 12.69 Q 13.93 13.25 14.5 13.56 Q 15.07 13.87 15.78 13.87 Z M 26.21 14.9 L 26.21 12.14 L 20.95 12.14 L 20.95 11.05 L 26.13 3.5 L 27.55 3.5 L 27.55 10.91 L 29.87 10.91 L 29.87 12.14 L 27.55 12.14 L 27.55 14.9 Z M 22.53 10.91 L 26.21 10.91 L 26.21 5.52 Z M 35.56 15.09 Q 34.26 15.09 33.25 14.33 Q 32.24 13.58 31.67 12.25 Q 31.1 10.92 31.1 9.2 Q 31.1 7.47 31.67 6.14 Q 32.24 4.82 33.25 4.06 Q 34.25 3.3 35.56 3.3 Q 36.88 3.3 37.88 4.06 Q 38.89 4.82 39.46 6.14 Q 40.04 7.47 40.04 9.2 Q 40.04 10.92 39.46 12.25 Q 38.89 13.58 37.88 14.33 Q 36.88 15.09 35.56 15.09 Z M 35.57 13.84 Q 36.48 13.84 37.18 13.24 Q 37.89 12.65 38.28 11.6 Q 38.67 10.55 38.67 9.19 Q 38.67 7.83 38.28 6.79 Q 37.88 5.75 37.18 5.15 Q 36.47 4.56 35.56 4.56 Q 34.65 4.56 33.95 5.15 Q 33.25 5.75 32.86 6.79 Q 32.47 7.83 32.47 9.19 Q 32.47 10.55 32.86 11.6 Q 33.25 12.64 33.96 13.24 Q 34.66 13.84 35.57 13.84 Z M 44.76 14.9 L 44.76 4.23 L 44.87 3.5 L 46.13 3.5 L 46.13 14.9 Z M 42.2 6.45 L 42.2 5.18 Q 42.53 5.19 43.01 4.95 Q 43.49 4.7 43.98 4.31 Q 44.48 3.92 44.87 3.5 L 45.74 4.44 Q 45.18 5 44.6 5.46 Q 44.01 5.92 43.41 6.19 Q 42.8 6.46 42.2 6.45 Z M 53.4 14.9 L 53.4 12.14 L 48.14 12.14 L 48.14 11.05 L 53.32 3.5 L 54.73 3.5 L 54.73 10.91 L 57.06 10.91 L 57.06 12.14 L 54.73 12.14 L 54.73 14.9 Z M 49.72 10.91 L 53.4 10.91 L 53.4 5.52 Z M 62.69 15.09 Q 61.86 15.09 61.19 14.84 Q 60.51 14.59 60.03 14.18 Q 59.55 13.77 59.27 13.3 L 60.43 12.67 Q 60.59 12.89 60.86 13.18 Q 61.13 13.46 61.55 13.66 Q 61.98 13.85 62.61 13.85 Q 63.7 13.85 64.36 13.22 Q 65.02 12.58 65.02 11.64 Q 65.02 10.91 64.63 10.4 Q 64.24 9.9 63.49 9.64 Q 62.74 9.39 61.7 9.39 L 61.39 9.39 L 61.39 8.3 L 61.68 8.3 Q 62.69 8.3 63.56 8.53 Q 64.42 8.76 65.06 9.2 Q 65.71 9.64 66.06 10.27 Q 66.41 10.91 66.41 11.74 Q 66.41 12.75 65.91 13.5 Q 65.41 14.26 64.57 14.68 Q 63.74 15.09 62.69 15.09 Z M 61.39 9.26 L 61.39 8.2 L 61.7 8.2 Q 63.1 8.2 63.92 7.72 Q 64.75 7.24 64.75 6.35 Q 64.75 5.86 64.48 5.44 Q 64.21 5.03 63.72 4.78 Q 63.23 4.54 62.58 4.54 Q 62.16 4.54 61.77 4.66 Q 61.39 4.78 61.07 5.02 Q 60.74 5.26 60.5 5.62 L 59.39 5 Q 59.7 4.48 60.18 4.1 Q 60.66 3.73 61.29 3.51 Q 61.91 3.3 62.65 3.3 Q 63.64 3.3 64.43 3.69 Q 65.22 4.08 65.67 4.76 Q 66.13 5.44 66.13 6.28 Q 66.13 7.02 65.79 7.57 Q 65.45 8.12 64.84 8.51 Q 64.22 8.89 63.42 9.08 Q 62.61 9.26 61.67 9.26 Z M 71.84 15.09 Q 70.62 15.09 69.69 14.69 Q 68.76 14.29 68.26 13.59 Q 67.75 12.88 67.75 11.93 Q 67.75 10.94 68.26 10.19 Q 68.76 9.44 69.69 9.03 Q 70.62 8.61 71.84 8.61 Q 73.1 8.61 74.02 9.03 Q 74.93 9.44 75.45 10.19 Q 75.96 10.94 75.96 11.93 Q 75.96 12.88 75.45 13.59 Q 74.93 14.29 74.02 14.69 Q 73.1 15.09 71.84 15.09 Z M 71.84 13.89 Q 73.05 13.89 73.8 13.3 Q 74.56 12.71 74.56 11.8 Q 74.56 10.86 73.8 10.26 Q 73.05 9.67 71.84 9.67 Q 71.06 9.67 70.45 9.94 Q 69.84 10.21 69.5 10.69 Q 69.15 11.17 69.15 11.8 Q 69.15 12.4 69.5 12.89 Q 69.84 13.37 70.45 13.63 Q 71.06 13.89 71.84 13.89 Z M 71.84 9.41 Q 70.75 9.41 69.92 9.03 Q 69.09 8.64 68.63 7.97 Q 68.18 7.29 68.18 6.4 Q 68.18 5.48 68.63 4.78 Q 69.09 4.08 69.92 3.69 Q 70.75 3.3 71.84 3.3 Q 72.96 3.3 73.79 3.69 Q 74.61 4.08 75.08 4.78 Q 75.55 5.48 75.55 6.4 Q 75.55 7.29 75.08 7.97 Q 74.61 8.64 73.79 9.03 Q 72.96 9.41 71.84 9.41 Z M 71.84 8.38 Q 72.87 8.38 73.52 7.87 Q 74.17 7.36 74.17 6.53 Q 74.17 5.63 73.52 5.06 Q 72.87 4.49 71.84 4.49 Q 70.85 4.49 70.2 5.06 Q 69.55 5.63 69.55 6.53 Q 69.55 7.36 70.2 7.87 Q 70.85 8.38 71.84 8.38 Z M 78.29 14.9 L 83.91 4.36 L 85.23 4.65 L 79.82 14.9 Z M 77.62 4.77 L 77.62 3.5 L 85.23 3.5 L 85.23 4.65 L 84.14 4.77 Z M 90.22 15.09 Q 89.54 15.09 88.82 14.89 Q 88.11 14.68 87.49 14.25 Q 86.87 13.82 86.46 13.15 L 87.57 12.54 Q 88.16 13.24 88.82 13.56 Q 89.47 13.89 90.19 13.89 Q 91.31 13.89 92.01 13.2 Q 92.71 12.52 92.71 11.4 Q 92.71 10.29 92.04 9.6 Q 91.36 8.9 90.26 8.9 Q 89.65 8.9 89.07 9.16 Q 88.48 9.43 88.17 9.82 L 86.92 9.52 L 87.46 3.5 L 93.55 3.5 L 93.55 4.75 L 88.69 4.75 L 88.35 8.37 Q 88.82 8.09 89.37 7.93 Q 89.91 7.76 90.48 7.76 Q 91.54 7.76 92.35 8.22 Q 93.15 8.68 93.63 9.49 Q 94.1 10.3 94.1 11.36 Q 94.1 12.47 93.6 13.31 Q 93.11 14.15 92.23 14.62 Q 91.36 15.09 90.22 15.09 Z"
              transform="matrix(0.997831, 0, 0, 0.982655, -0.830196, 0.386238)"
              style="fill: rgb(51, 51, 51); line-height: 26.0519px;"/>
    </a>
</svg>